<?xml version="1.0" standalone="no"?>
<!DOCTYPE svg PUBLIC "-//W3C//DTD SVG 20010904//EN"
 "http://www.w3.org/TR/2001/REC-SVG-20010904/DTD/svg10.dtd">
<svg version="1.0" xmlns="http://www.w3.org/2000/svg"
 width="1376.000000pt" height="1376.000000pt" viewBox="0 0 1376.000000 1376.000000"
 preserveAspectRatio="xMidYMid meet">
<metadata>
Created by potrace 1.11, written by Peter Selinger 2001-2013
</metadata>
<g transform="translate(0.000000,1376.000000) scale(0.100000,-0.100000)"
fill="#000000" stroke="none">
<path d="M1664 12429 c-10 -17 1493 -1516 1507 -1502 8 8 -190 211 -740 762
-413 413 -753 751 -756 751 -2 0 -7 -5 -11 -11z"/>
<path d="M11512 11688 c-578 -577 -749 -754 -741 -764 8 -10 184 160 763 739
414 414 751 758 748 765 -2 6 -7 12 -11 12 -4 0 -345 -338 -759 -752z"/>
<path d="M6523 12376 c36 -27 46 -43 69 -113 16 -45 46 -162 67 -260 56 -254
74 -323 82 -323 7 0 42 88 175 432 27 70 52 122 55 115 4 -7 30 -82 59 -167
87 -258 144 -390 160 -374 8 9 36 103 140 467 54 191 69 224 106 233 48 12 21
19 -81 20 -58 1 -105 0 -105 -3 0 -2 14 -9 30 -14 27 -10 30 -15 30 -53 0 -76
-30 -217 -87 -406 l-25 -85 -78 225 c-86 249 -127 348 -139 334 -8 -8 -134
-334 -192 -494 l-23 -65 -38 190 c-61 309 -63 334 -30 351 12 6 24 13 26 15 3
2 -51 5 -119 5 l-124 2 42 -32z"/>
<path d="M6946 11353 c-3 -16 -24 -140 -47 -278 -22 -137 -43 -253 -45 -256
-2 -3 -32 -7 -66 -8 -35 -1 -81 -4 -103 -6 -22 -2 -67 -7 -99 -10 -316 -31
-718 -134 -1019 -261 -371 -157 -670 -340 -977 -597 -103 -86 -337 -318 -410
-406 -25 -30 -58 -69 -73 -87 -190 -223 -438 -640 -556 -939 -78 -197 -155
-439 -185 -587 -46 -222 -71 -406 -81 -583 -3 -60 -9 -113 -13 -117 -4 -3 -25
-9 -47 -12 -22 -3 -65 -10 -95 -16 -88 -16 -93 -17 -140 -25 -25 -4 -54 -9
-65 -11 -10 -2 -35 -6 -55 -9 -19 -4 -78 -14 -130 -24 -98 -18 -99 -21 -5 -37
17 -2 91 -15 165 -29 74 -13 149 -26 165 -29 17 -3 72 -13 123 -22 l92 -18 1
-55 c0 -31 2 -65 4 -76 2 -11 6 -56 9 -100 40 -508 229 -1090 502 -1545 265
-444 630 -838 1060 -1146 263 -188 618 -368 949 -480 93 -32 328 -97 385 -108
14 -2 75 -13 135 -24 97 -18 157 -27 245 -38 45 -5 164 -15 224 -19 32 -2 62
-9 66 -15 4 -7 11 -33 15 -59 3 -25 8 -53 10 -61 10 -48 27 -138 29 -155 2
-11 13 -77 26 -146 19 -107 26 -126 40 -122 15 4 21 27 46 180 8 50 14 87 19
113 3 14 14 76 25 139 11 63 23 117 26 120 3 3 24 6 47 7 88 2 208 15 447 50
66 9 265 56 385 90 405 117 791 305 1140 557 192 139 308 240 496 432 605 618
989 1484 1035 2333 3 64 9 120 13 124 6 6 336 68 598 112 44 7 21 13 -217 53
-14 2 -56 10 -95 18 -38 7 -92 17 -120 21 -27 5 -52 9 -55 9 -3 1 -29 5 -58
10 -61 9 -58 3 -66 155 -3 58 -8 116 -10 130 -2 14 -7 50 -10 80 -51 456 -231
987 -477 1406 -85 145 -291 442 -328 474 -3 3 -28 32 -56 65 -83 100 -273 292
-389 391 -377 326 -777 555 -1242 714 -128 44 -374 110 -464 125 -19 3 -53 10
-75 15 -49 10 -92 17 -170 25 -33 4 -70 8 -83 10 -12 2 -64 7 -115 10 -121 9
-147 12 -151 16 -3 3 -30 163 -51 299 -12 75 -36 218 -40 238 -7 31 -32 28
-39 -5z m22 -333 c2 -156 -1 -200 -10 -201 -7 0 -20 -2 -29 -4 -33 -6 -40 8
-29 66 12 65 13 72 36 222 10 64 21 117 24 117 3 0 6 -90 8 -200z m-5 -239 c4
-1 7 -107 7 -236 l0 -235 -84 0 -84 0 13 63 c7 34 16 80 19 102 3 22 8 51 10
65 2 14 12 70 21 125 22 130 18 123 57 120 18 -2 36 -4 41 -4z m-117 -33 c-3
-18 -17 -103 -31 -188 -14 -85 -28 -171 -31 -190 -9 -64 -14 -70 -47 -71 -105
-2 -285 -28 -455 -65 -67 -15 -124 -25 -125 -23 -2 2 -31 104 -64 227 l-60
222 41 11 c59 16 311 66 376 74 30 4 64 9 75 11 11 2 56 7 100 10 44 4 81 8
83 9 1 1 34 3 73 4 l70 2 -5 -33z m479 17 c17 -2 55 -6 85 -10 128 -15 473
-84 484 -96 4 -4 -114 -442 -120 -448 -2 -2 -48 6 -101 17 -54 12 -141 29
-193 38 -52 8 -106 17 -120 19 -14 3 -64 8 -112 11 -100 8 -87 -10 -113 154
-17 107 -22 140 -31 190 -3 19 -8 49 -10 65 -3 17 -7 41 -10 54 l-5 23 108 -6
c59 -4 122 -9 138 -11z m-1259 -346 c51 -190 58 -224 45 -227 -106 -21 -425
-147 -604 -239 -70 -36 -129 -64 -131 -62 -11 13 -226 392 -226 399 0 11 364
190 480 236 119 47 352 123 365 120 5 -1 37 -103 71 -227z m2049 174 c72 -25
184 -67 250 -95 150 -62 415 -197 415 -210 0 -14 -223 -398 -231 -398 -3 0
-37 17 -75 38 -130 71 -347 164 -503 215 -86 28 -158 52 -160 54 -3 2 103 407
116 440 6 16 22 12 188 -44z m-1145 -383 l0 -70 -52 -1 c-29 0 -72 -2 -96 -4
l-43 -4 7 57 c10 86 11 87 103 89 l81 3 0 -70z m-1793 -40 c30 -52 64 -111 75
-130 11 -19 38 -66 61 -104 27 -47 36 -71 28 -74 -7 -2 -69 -42 -139 -89 -137
-92 -318 -235 -421 -333 l-64 -62 -106 105 c-58 58 -132 130 -164 161 -52 50
-57 59 -45 73 16 20 116 115 178 169 25 21 47 41 50 44 43 47 467 342 484 337
4 -2 33 -45 63 -97z m1581 38 c-6 -35 -13 -66 -16 -69 -4 -4 -65 -14 -137 -23
-147 -18 -157 -20 -280 -47 -391 -86 -765 -249 -1084 -472 -222 -154 -486
-399 -643 -597 -300 -378 -504 -804 -602 -1260 -33 -153 -32 -148 -55 -349 -7
-59 -7 -60 -95 -74 l-38 -6 6 77 c38 462 205 966 454 1372 197 321 484 639
777 861 408 310 851 507 1355 603 74 14 169 29 210 32 41 4 76 7 77 8 1 1 20
3 41 4 l39 3 -9 -63z m682 32 c155 -24 166 -26 265 -51 476 -119 917 -343
1297 -658 65 -54 313 -300 373 -371 16 -19 73 -92 125 -162 274 -365 470 -797
564 -1248 28 -136 65 -407 58 -428 -2 -7 -12 -10 -21 -8 -9 3 -34 8 -56 12
-22 3 -41 7 -43 9 -4 4 -9 39 -17 110 -3 33 -10 85 -15 115 -5 30 -12 73 -15
95 -10 68 -73 305 -108 410 -254 746 -797 1379 -1488 1732 -186 95 -285 136
-464 195 -163 53 -399 106 -545 122 -25 3 -71 8 -102 12 -31 4 -59 12 -61 19
-3 6 -8 38 -12 70 l-8 58 74 -7 c41 -4 130 -16 199 -26z m1502 -46 c182 -118
392 -284 550 -435 l57 -55 -164 -158 c-90 -86 -166 -158 -169 -159 -4 -1 -43
32 -87 73 -125 115 -250 213 -406 316 l-142 95 105 181 c58 100 110 190 115
200 13 24 16 23 141 -58z m-1972 -102 c0 -15 -14 -17 -100 -18 -78 -2 -100 1
-100 11 0 14 27 18 143 22 47 1 57 -1 57 -15z m-234 -3 c9 -16 -1 -21 -48 -26
-72 -7 -327 -49 -360 -59 -9 -3 -27 -7 -40 -9 -49 -10 -236 -66 -316 -95 -507
-185 -966 -511 -1298 -920 -355 -440 -578 -958 -648 -1507 -16 -121 -19 -133
-42 -133 -17 0 -17 16 1 153 114 857 594 1623 1325 2112 301 202 678 361 1035
436 33 7 62 13 65 14 3 1 30 5 60 9 30 5 64 10 75 12 11 2 47 7 80 10 33 4 61
7 62 8 8 7 44 3 49 -5z m575 -4 c137 -12 435 -76 564 -120 342 -116 626 -262
890 -460 44 -33 82 -62 85 -65 3 -3 34 -30 70 -60 285 -239 546 -571 724 -920
112 -219 184 -412 241 -645 37 -153 39 -161 60 -315 20 -142 19 -162 -2 -158
-19 3 -19 2 -47 198 -21 138 -23 148 -51 265 -21 88 -81 285 -104 340 -5 11
-23 56 -41 100 -285 690 -842 1258 -1545 1577 -261 119 -661 224 -908 240 -26
1 -42 8 -48 21 -9 16 -7 18 23 13 18 -3 58 -8 89 -11z m-340 -57 c0 -18 2
-205 4 -415 l4 -383 -42 -1 c-75 -2 -204 -13 -277 -25 -38 -6 -42 -5 -36 12 6
21 6 21 41 234 13 85 27 166 30 180 2 13 7 42 10 65 12 82 55 333 60 351 2 6
44 11 104 13 l101 2 1 -33z m-241 14 c0 -5 -4 -33 -10 -63 -5 -30 -12 -68 -15
-85 -2 -17 -14 -87 -25 -155 -12 -68 -23 -136 -25 -151 -3 -16 -7 -41 -10 -58
-3 -16 -7 -42 -9 -57 -7 -39 -35 -203 -40 -233 -2 -14 -5 -30 -5 -36 -1 -6
-45 -21 -98 -34 -283 -67 -561 -198 -795 -377 -31 -24 -63 -49 -70 -56 -46
-43 -27 -52 -358 178 -172 119 -313 215 -315 213 -1 -2 36 -58 84 -125 47 -67
124 -176 171 -243 47 -67 106 -151 132 -187 l47 -66 -59 -71 c-198 -240 -362
-580 -424 -876 l-12 -54 -59 -13 c-33 -6 -76 -14 -95 -17 -28 -4 -550 -97
-683 -121 l-29 -6 7 68 c21 220 115 606 185 758 5 11 21 49 36 85 41 100 129
273 190 371 54 87 201 297 226 323 7 7 31 36 53 64 64 81 290 301 404 391 114
90 262 191 386 264 76 43 327 167 341 167 3 0 20 6 37 14 129 58 478 153 631
172 23 3 66 9 96 13 76 12 110 12 110 3z m705 -22 c221 -36 444 -99 660 -188
109 -45 374 -187 483 -260 177 -118 297 -217 458 -377 157 -157 174 -176 266
-297 173 -227 298 -446 401 -705 30 -76 60 -154 65 -173 6 -19 20 -66 32 -105
22 -75 68 -277 75 -335 3 -19 7 -45 10 -58 2 -13 7 -51 10 -85 4 -34 7 -66 8
-72 3 -14 -20 -11 -303 39 -140 25 -268 48 -285 50 -16 3 -41 8 -55 11 -14 3
-68 12 -120 21 -52 9 -96 17 -97 18 -1 1 -16 54 -32 116 -76 294 -212 570
-396 800 l-54 67 203 304 c190 285 223 339 210 339 -3 0 -49 -31 -102 -68
-112 -79 -404 -283 -475 -331 l-49 -33 -26 25 c-15 13 -56 46 -92 73 -245 184
-525 315 -827 384 -29 7 -53 17 -54 23 0 7 -3 23 -5 37 -3 14 -13 75 -24 135
-10 61 -26 151 -35 200 -9 50 -25 142 -36 205 -21 124 -37 211 -45 248 -5 24
-4 24 53 17 32 -3 112 -15 178 -25z m-2800 -607 l61 -58 -31 -31 c-16 -17 -57
-61 -90 -99 -33 -37 -65 -73 -71 -79 -29 -30 -143 -188 -209 -288 -41 -62 -80
-121 -87 -130 -12 -16 -29 -8 -208 97 -107 63 -194 120 -192 126 5 19 120 198
192 299 81 114 218 280 302 368 l61 63 106 -105 c58 -57 133 -131 166 -163z
m4987 215 c152 -161 316 -375 441 -572 65 -104 68 -111 50 -124 -15 -11 -102
-62 -339 -199 l-41 -23 -59 92 c-101 161 -228 329 -342 453 -25 28 -56 62 -69
76 l-24 26 163 161 c90 89 165 162 167 162 2 0 26 -24 53 -52z m-2642 -448 c0
-26 -2 -27 -52 -28 -66 -2 -221 -13 -228 -17 -3 -2 -25 -6 -48 -10 -42 -6 -43
-6 -38 21 5 24 26 59 26 42 0 -3 17 -2 38 3 20 5 84 11 142 15 58 4 106 8 108
9 1 1 14 0 27 -3 19 -3 25 -11 25 -32z m-398 -38 c-3 -26 -9 -29 -127 -59
-260 -68 -480 -175 -711 -346 -89 -65 -108 -76 -124 -67 -11 6 -20 14 -20 18
0 5 34 35 75 67 230 182 495 314 779 389 123 33 134 33 128 -2z m889 4 c279
-73 542 -202 768 -376 50 -39 91 -74 91 -78 0 -4 -9 -13 -20 -20 -17 -11 -29
-5 -102 51 -219 168 -476 295 -734 362 -98 25 -114 35 -114 68 0 22 0 22 111
-7z m-491 -27 c0 -15 -8 -19 -32 -20 -68 -1 -242 -20 -320 -34 -20 -4 -28 -1
-28 9 0 30 41 41 195 53 39 3 71 6 72 7 1 0 26 2 57 2 48 1 56 -1 56 -17z
m-410 -47 c0 -14 -18 -23 -87 -41 -252 -65 -532 -206 -726 -364 -49 -41 -60
-46 -78 -37 -11 6 -19 15 -17 20 6 15 113 97 201 154 171 110 371 201 562 256
120 35 145 37 145 12z m934 -12 c202 -59 393 -145 556 -251 90 -58 224 -159
218 -164 -23 -18 -48 -24 -60 -12 -33 33 -211 158 -278 195 -164 92 -462 211
-527 212 -19 0 -43 25 -43 44 0 12 34 5 134 -24z m-523 -228 c0 -125 2 -371 4
-547 2 -176 3 -510 4 -743 1 -275 4 -422 11 -420 5 2 145 136 311 298 281 275
300 297 296 325 -10 72 -58 339 -62 345 -2 4 33 33 78 64 345 241 599 416 605
416 4 0 31 -24 59 -52 l52 -53 -181 -185 c-99 -102 -261 -266 -359 -366 -98
-100 -179 -185 -179 -191 0 -5 44 -15 98 -21 129 -17 155 -21 237 -37 57 -11
197 -36 450 -80 17 -3 89 -16 160 -30 72 -13 165 -29 207 -36 65 -11 78 -16
82 -34 12 -48 26 -166 33 -267 5 -89 3 -108 -8 -109 -8 0 -435 0 -949 1 l-936
1 -20 -23 c-11 -13 -161 -160 -334 -328 -284 -277 -316 -305 -344 -303 -17 1
-97 18 -176 38 -80 20 -269 58 -420 85 -151 28 -309 56 -350 64 -41 8 -119 22
-172 32 -74 13 -98 22 -99 33 0 9 -2 25 -4 36 -17 93 -25 155 -30 250 l-7 110
949 0 c521 0 961 2 977 4 l29 4 -49 44 c-27 25 -85 80 -130 122 -44 42 -140
132 -214 201 -73 69 -164 154 -202 190 l-69 65 52 165 c46 146 100 410 143
700 6 38 44 270 51 309 2 13 7 43 11 67 6 41 8 43 48 49 22 4 50 9 61 11 11 3
54 7 95 11 41 3 76 6 77 7 1 1 27 3 57 4 l56 2 1 -228z m-426 156 c-4 -21 -62
-372 -70 -428 -1 -14 -8 -52 -14 -85 -6 -33 -13 -78 -16 -100 -4 -22 -8 -47
-10 -55 -2 -8 -7 -35 -10 -60 -3 -25 -8 -54 -10 -65 -2 -11 -4 -30 -4 -43 -1
-15 -6 -22 -15 -20 -7 2 -162 106 -344 233 l-331 229 32 28 c52 45 246 173
327 215 99 52 243 110 360 144 116 34 111 34 105 7z m1115 -72 c52 -21 133
-59 180 -84 149 -79 359 -228 343 -242 -4 -4 -127 -90 -273 -191 -146 -100
-289 -200 -318 -222 -30 -21 -56 -36 -60 -33 -3 4 -20 88 -38 189 -18 100 -35
198 -39 217 -44 251 -75 433 -75 444 0 17 134 -21 280 -78z m1171 68 c-12 -15
-101 -109 -200 -209 l-178 -183 -43 43 -42 42 39 28 c136 96 438 305 441 305
2 0 -6 -12 -17 -26z m-3399 -418 l-31 -35 -156 222 -156 222 187 -187 187
-187 -31 -35z m-1459 232 c106 -61 194 -113 196 -114 2 -2 -26 -60 -62 -131
-84 -165 -128 -272 -191 -463 l-51 -155 -45 11 c-136 35 -386 107 -392 112 -9
10 101 336 167 492 31 74 78 176 104 225 27 50 53 100 60 113 6 12 14 22 17
22 2 0 91 -50 197 -112z m6239 -24 c37 -71 95 -199 129 -284 71 -175 151 -421
141 -432 -4 -4 -104 -33 -222 -66 l-215 -58 -33 110 c-48 158 -113 319 -199
491 -41 82 -71 151 -66 152 4 2 91 52 193 112 102 60 190 108 195 107 6 -1 40
-61 77 -132z m-1787 -214 l-19 -21 -48 48 -48 48 22 17 c23 17 24 16 67 -27
44 -44 45 -44 26 -65z m-44 -44 c-8 -9 -17 -16 -21 -16 -4 0 -31 22 -59 49
l-51 49 22 14 c22 15 25 13 72 -32 43 -42 48 -50 37 -64z m-2882 46 c8 -15 4
-25 -22 -50 -39 -38 -43 -38 -57 -12 -9 17 -6 25 20 50 36 35 46 37 59 12z
m42 -48 c17 -16 17 -18 -18 -55 -21 -22 -40 -39 -43 -39 -3 0 -11 10 -18 21
-12 19 -10 25 19 55 38 39 37 39 60 18z m-164 -118 c-102 -121 -179 -241 -264
-416 -61 -124 -124 -296 -145 -394 -12 -59 -23 -76 -49 -76 -22 0 -22 -1 22
160 37 134 75 233 142 368 83 166 127 234 251 390 l51 63 17 -22 c18 -21 17
-23 -25 -73z m920 -653 c-1 0 -56 -11 -122 -24 -204 -37 -151 -76 -426 315
-132 187 -239 343 -239 346 0 4 17 26 38 49 l37 43 357 -364 c196 -199 356
-364 355 -365z m2324 630 c97 -128 185 -276 238 -399 24 -54 49 -112 57 -129
15 -34 81 -260 89 -307 5 -26 3 -29 -17 -26 -18 2 -26 14 -36 48 -96 339 -224
601 -396 812 -42 52 -44 57 -30 77 8 11 17 21 18 21 2 0 37 -44 77 -97z
m-3173 37 c11 -18 7 -27 -37 -83 -157 -201 -286 -459 -352 -707 -12 -47 -23
-86 -24 -87 -4 -8 -65 -11 -65 -4 0 5 16 64 35 130 71 243 189 478 342 675 40
53 77 96 81 96 4 0 13 -9 20 -20z m3194 -184 c44 -66 106 -174 138 -240 57
-117 141 -350 155 -430 6 -37 5 -38 -17 -32 -13 3 -28 6 -34 6 -6 0 -17 26
-23 58 -49 220 -179 496 -329 699 -58 78 -60 82 -44 104 l16 22 29 -34 c15
-19 65 -88 109 -153z m-2970 -138 c101 -145 205 -293 230 -329 l47 -66 -187
-33 c-103 -18 -297 -52 -431 -76 -134 -25 -245 -43 -247 -41 -6 6 47 190 78
267 40 101 120 259 175 345 56 87 136 194 145 195 4 0 89 -118 190 -262z
m2889 88 c75 -113 147 -254 193 -377 39 -106 80 -248 73 -255 -2 -2 -39 2 -83
10 -43 8 -95 17 -115 20 -20 3 -42 8 -50 10 -8 3 -30 7 -49 10 -19 3 -125 21
-235 41 -110 19 -216 38 -235 41 -19 3 -36 7 -38 9 -2 2 93 147 210 324 l213
321 28 -33 c16 -17 55 -72 88 -121z m-4916 -215 c180 -51 210 -62 208 -77 -1
-11 -13 -71 -27 -134 -28 -130 -34 -167 -50 -330 l-11 -114 -35 -7 c-19 -4
-53 -10 -75 -13 -53 -9 -315 -55 -338 -60 -17 -4 -18 2 -12 87 13 197 41 402
80 581 14 65 25 119 25 122 0 9 34 1 235 -55z m6860 32 c4 -16 9 -39 11 -52 3
-12 11 -51 19 -85 14 -62 43 -233 50 -296 2 -19 6 -51 9 -71 3 -20 8 -88 11
-151 l6 -115 -43 7 c-83 14 -173 30 -198 35 -70 14 -139 26 -175 32 -22 3 -43
9 -46 14 -3 5 -6 33 -8 62 -3 78 -38 308 -64 425 -13 57 -21 104 -18 106 3 2
35 11 71 20 36 9 126 34 200 55 74 21 142 39 151 40 10 1 20 -10 24 -26z
m-1554 -515 c10 -15 31 -205 33 -292 l1 -80 -32 -1 -33 -1 0 61 c-1 70 -7 137
-24 252 l-12 82 31 -6 c16 -3 33 -10 36 -15z m78 -78 c18 -117 27 -257 19
-279 -4 -11 -14 -18 -25 -17 -14 2 -18 13 -20 52 -2 70 -12 195 -18 224 -20
96 -19 100 8 98 23 -2 26 -7 36 -78z m91 55 c25 -4 52 -9 60 -10 8 -2 53 -10
100 -19 47 -8 96 -17 110 -19 14 -3 134 -24 268 -48 l242 -43 1 -53 c1 -29 2
-77 2 -105 l1 -53 -413 0 c-227 0 -414 3 -416 6 -2 3 -7 52 -11 110 -3 57 -8
111 -9 119 -2 9 -6 41 -10 72 -7 52 -6 57 11 54 11 -2 39 -7 64 -11z m841
-225 c1 -44 2 -90 2 -102 1 -17 -5 -24 -21 -26 -21 -3 -22 0 -23 75 0 43 -2
90 -4 106 -3 23 0 27 21 27 23 0 24 -2 25 -80z m120 54 l36 -6 2 -89 2 -90
-62 3 -62 3 -3 98 -3 98 27 -5 c15 -3 43 -8 63 -12z m302 -54 c121 -22 221
-41 223 -43 3 -3 7 -57 5 -74 -1 -10 -54 -13 -229 -13 l-228 0 -2 85 c-2 47 0
85 4 85 3 0 105 -18 227 -40z m483 -85 c115 -20 214 -38 219 -40 6 -2 -91 -4
-215 -4 l-225 -1 0 40 c-1 22 2 40 6 40 3 0 100 -16 215 -35z m-6031 -44 c6
-1 10 -29 11 -64 1 -94 14 -241 24 -277 9 -32 9 -32 -23 -26 -18 3 -48 8 -67
11 -19 3 -69 12 -110 20 -117 22 -560 103 -608 110 -24 4 -45 12 -47 18 -2 7
-5 56 -7 109 l-3 97 60 3 c48 2 734 1 770 -1z m74 -74 c1 -80 7 -157 20 -247
7 -59 7 -60 -16 -60 -12 0 -23 3 -23 8 0 4 -5 34 -10 67 -13 78 -24 279 -17
298 4 10 13 13 25 10 18 -4 20 -14 21 -76z m75 72 c2 -2 7 -49 11 -104 6 -99
20 -214 31 -267 5 -27 4 -28 -28 -22 -44 9 -46 11 -53 74 -4 30 -8 66 -10 80
-2 14 -6 75 -10 135 l-7 110 31 -1 c17 0 33 -3 35 -5z m-1716 -39 c2 -22 1
-40 -1 -40 -2 0 -52 9 -113 20 -60 11 -123 23 -141 26 -182 30 -179 32 43 33
l210 1 2 -40z m492 -45 c0 -47 -3 -85 -7 -85 -5 0 -26 5 -48 9 -22 5 -56 12
-75 15 -19 3 -71 12 -115 20 -99 19 -130 24 -177 32 -37 6 -38 8 -38 50 l0 44
230 0 230 0 0 -85z m159 -16 c1 -92 0 -100 -16 -95 -10 3 -38 8 -63 11 l-45 7
-3 89 -3 89 64 0 64 0 2 -101z m72 64 c0 -21 2 -69 4 -106 3 -65 2 -68 -18
-65 -21 3 -22 9 -25 106 -3 97 -2 102 18 102 16 0 20 -7 21 -37z m3408 -391
c113 -117 207 -217 209 -222 2 -5 -19 -96 -46 -202 -28 -106 -53 -211 -56
-233 -4 -22 -22 -130 -42 -240 -44 -251 -39 -222 -70 -405 -14 -85 -30 -159
-34 -163 -16 -17 -152 -41 -298 -52 l-82 -6 4 848 c3 466 5 904 6 973 l1 125
101 -105 c56 -58 194 -201 307 -318z m-4014 292 c190 -32 371 -67 376 -72 4
-4 10 -49 13 -99 4 -51 8 -98 11 -105 2 -7 6 -37 9 -66 6 -54 48 -261 65 -319
5 -18 6 -34 3 -37 -18 -10 -432 -109 -437 -104 -12 12 -74 306 -90 423 -3 28
-8 64 -10 80 -5 37 -11 100 -20 224 l-8 93 29 -6 c16 -4 43 -9 59 -12z m7221
-96 c-8 -122 -8 -119 -31 -288 -17 -120 -68 -370 -82 -405 -8 -19 -14 -18
-229 35 l-220 55 13 50 c27 104 67 329 78 445 12 122 14 132 17 135 3 3 333
64 388 72 19 3 37 7 39 9 2 2 11 4 19 4 12 0 13 -17 8 -112z m-6723 7 c20 -4
38 -10 39 -14 0 -3 2 -17 3 -31 6 -76 26 -221 40 -290 3 -14 10 -50 16 -80 5
-30 22 -98 36 -150 283 -1073 1141 -1916 2216 -2180 134 -33 247 -53 394 -71
112 -13 106 -9 118 -88 l7 -44 -68 7 c-87 9 -153 17 -179 21 -78 12 -111 19
-195 37 -422 90 -795 251 -1150 496 -296 204 -582 488 -797 793 -309 438 -516
1003 -559 1533 l-6 79 23 -6 c13 -3 41 -9 62 -12z m6233 -7 c-3 -13 -8 -50
-11 -83 -56 -571 -274 -1133 -617 -1586 -111 -148 -131 -171 -253 -298 -321
-334 -678 -576 -1108 -750 -235 -95 -490 -163 -732 -196 -22 -3 -53 -7 -70
-10 -16 -2 -57 -7 -91 -10 l-60 -6 10 61 c7 43 14 60 25 61 52 3 185 20 247
33 12 2 37 7 55 10 140 22 372 87 527 147 867 337 1533 1042 1815 1924 39 121
93 342 102 420 4 28 8 57 10 65 2 8 7 47 11 85 4 39 8 79 10 90 1 11 3 25 3
32 1 6 25 16 54 21 78 14 78 14 73 -10z m-6121 -17 c3 -5 8 -31 10 -58 70
-654 326 -1224 770 -1717 319 -353 760 -644 1220 -806 206 -72 563 -148 708
-150 10 0 17 -8 17 -20 0 -23 16 -23 -185 5 -164 23 -170 24 -310 60 -424 109
-779 283 -1119 550 -126 98 -157 126 -294 264 -369 372 -639 849 -768 1356
-28 108 -31 122 -40 175 -3 19 -9 55 -14 80 -12 59 -17 99 -26 193 -6 66 -5
77 9 77 9 0 18 -4 22 -9z m5958 -33 c-21 -215 -88 -527 -153 -713 -157 -444
-389 -813 -720 -1145 -380 -381 -816 -635 -1345 -783 -98 -28 -325 -72 -420
-82 -33 -4 -72 -9 -87 -11 -21 -3 -25 -1 -21 15 4 15 21 20 96 30 163 20 210
30 415 83 201 52 347 108 567 218 499 252 901 627 1218 1137 84 134 198 383
258 561 38 111 103 360 114 437 3 22 7 51 10 65 8 50 14 96 20 155 8 70 10 75
34 75 16 0 18 -7 14 -42z m-5876 22 c26 -5 59 -12 73 -14 14 -2 77 -13 140
-25 63 -11 129 -23 145 -26 17 -2 41 -7 55 -10 14 -3 107 -20 207 -37 l182
-32 17 -76 c61 -278 198 -574 373 -806 36 -48 72 -95 79 -105 16 -21 25 -6
-263 -409 -89 -124 -165 -231 -170 -239 -8 -14 46 22 360 241 77 53 172 119
211 146 l70 49 35 -29 c135 -115 302 -224 466 -303 119 -58 336 -135 440 -156
l61 -13 22 -115 c12 -64 24 -127 26 -141 3 -14 21 -113 40 -220 20 -107 38
-208 41 -225 2 -16 10 -60 17 -97 l13 -67 -46 5 c-788 86 -1522 484 -2001
1086 -45 57 -87 110 -94 119 -7 8 -42 60 -78 115 -242 368 -394 765 -463 1214
-10 66 -17 180 -12 180 3 0 28 -4 54 -10z m5819 -17 c-3 -16 -8 -55 -12 -88
-4 -33 -8 -69 -10 -80 -2 -11 -9 -49 -15 -85 -32 -189 -101 -429 -177 -615
-86 -211 -284 -543 -438 -735 -85 -106 -314 -336 -414 -416 -349 -281 -704
-466 -1100 -573 -160 -44 -325 -77 -432 -87 -29 -2 -61 -7 -70 -10 -15 -4 -17
0 -13 23 3 15 14 80 25 143 11 63 22 133 25 155 4 22 8 47 10 55 3 8 23 120
45 249 22 129 41 235 43 236 1 1 43 12 92 24 284 70 577 216 816 409 l86 69
319 -222 c175 -123 320 -222 322 -220 2 1 -99 145 -223 319 l-227 316 33 43
c19 23 36 44 40 47 27 21 174 261 229 375 80 166 113 256 154 419 l31 120 180
33 c99 18 286 53 415 77 291 54 273 53 266 19z m-4934 -213 c71 -291 204 -568
386 -800 40 -51 48 -68 41 -82 -5 -10 -13 -18 -17 -18 -8 1 -67 75 -133 170
-41 57 -169 275 -169 285 0 3 -13 33 -29 68 -41 90 -88 226 -117 337 -29 117
-30 122 -2 118 18 -2 25 -15 40 -78z m4023 -47 c-50 -189 -103 -326 -185 -478
-37 -70 -168 -268 -200 -305 -12 -14 -29 -35 -37 -47 -19 -28 -29 -29 -42 -4
-8 13 -6 23 7 37 43 46 135 177 189 269 61 104 98 178 148 300 19 44 73 216
79 249 16 83 28 106 56 106 17 0 16 -10 -15 -127z m-3964 107 c11 0 22 -23 37
-80 25 -93 82 -247 125 -339 60 -128 231 -394 268 -417 7 -4 -9 -37 -38 -73
-4 -5 -11 3 -84 100 -169 226 -295 501 -358 778 -9 41 -8 43 12 37 12 -3 29
-6 38 -6z m3923 -17 c-65 -295 -194 -572 -382 -821 -52 -68 -56 -71 -73 -56
-36 32 -32 50 26 125 78 100 160 236 217 358 49 104 120 304 133 373 7 37 10
39 73 47 8 1 11 -7 6 -26z m-3569 -48 c138 -25 264 -48 280 -51 17 -2 66 -11
110 -19 44 -8 98 -18 120 -21 49 -7 51 -9 39 -33 -13 -26 -438 -621 -444 -621
-10 0 -121 158 -179 255 -87 146 -166 335 -205 487 -14 57 -14 58 7 53 12 -3
135 -25 272 -50z m3411 -101 c-58 -176 -163 -386 -266 -531 -44 -62 -84 -113
-88 -112 -4 0 -109 144 -234 320 -206 289 -225 319 -205 324 89 22 833 151
835 145 2 -4 -18 -70 -42 -146z m-666 -266 c102 -143 209 -294 238 -335 l52
-74 -39 -42 -40 -42 -88 87 c-48 48 -208 206 -355 352 l-268 265 53 10 c28 6
70 14 92 17 22 3 58 10 80 14 90 18 74 32 275 -252z m-1804 166 c2 -16 13 -76
24 -134 35 -189 74 -138 -304 -401 -182 -126 -334 -229 -339 -229 -4 0 -29 20
-55 45 l-47 44 355 355 c195 195 356 354 357 352 2 -2 6 -16 9 -32z m-2406
-276 c50 -160 124 -340 204 -495 l73 -141 -90 -54 c-316 -185 -301 -177 -315
-160 -25 32 -181 358 -227 475 -45 116 -111 313 -117 351 -3 17 20 25 202 72
113 29 212 53 221 53 12 1 25 -26 49 -101z m6349 51 c113 -28 209 -54 214 -58
13 -13 -101 -347 -173 -507 -34 -74 -108 -221 -147 -292 l-35 -62 -41 25 c-23
14 -112 66 -198 116 l-156 91 50 92 c76 140 164 344 215 503 26 78 51 143 56
143 5 0 102 -23 215 -51z m-3854 -334 c56 -312 65 -358 70 -385 3 -14 8 -38
10 -55 3 -16 10 -57 16 -90 6 -33 13 -70 16 -82 4 -18 1 -23 -13 -23 -37 0
-257 81 -370 135 -105 51 -321 187 -386 244 l-27 24 77 52 c42 29 187 129 322
223 135 94 246 167 247 164 1 -4 18 -97 38 -207z m1225 156 c36 -25 176 -123
313 -217 l247 -172 -62 -50 c-126 -100 -323 -213 -472 -272 -88 -35 -247 -82
-253 -76 -2 2 0 30 6 62 6 33 12 70 15 84 2 14 11 63 20 110 8 47 18 101 21
120 3 19 7 46 10 60 3 14 7 41 11 60 11 68 23 136 39 225 9 50 17 98 18 107 1
19 0 20 87 -41z m829 -240 l20 -28 -32 -37 -32 -38 -28 29 -27 29 32 37 c18
20 36 37 40 37 4 0 16 -13 27 -29z m51 -75 c0 -6 -12 -24 -26 -40 -23 -26 -27
-27 -41 -13 -15 14 -13 19 13 50 21 24 33 31 42 24 6 -5 12 -15 12 -21z
m-2893 -31 c45 -43 46 -45 28 -60 -40 -30 -54 -28 -95 11 l-39 39 26 27 c15
16 28 28 29 28 2 0 24 -20 51 -45z m3053 -190 l142 -200 -171 169 c-93 94
-167 174 -163 180 7 12 46 54 48 52 1 0 66 -91 144 -201z m-3126 126 c36 -37
37 -40 19 -50 -16 -8 -26 -4 -56 26 -29 28 -35 39 -26 49 16 20 21 18 63 -25z
m-47 -36 c20 -19 34 -37 32 -38 -2 -2 -85 -60 -184 -128 -236 -163 -246 -170
-275 -193 -14 -11 67 73 180 187 113 114 206 207 208 207 2 0 19 -16 39 -35z
m205 27 c5 -12 122 -101 203 -153 179 -117 336 -185 611 -264 12 -3 36 -85 25
-85 -19 0 -199 53 -281 83 -190 69 -411 194 -572 324 l-69 56 33 23 c36 25 45
28 50 16z m2581 -45 c-2 -4 -46 -39 -96 -78 -149 -115 -347 -226 -523 -293
-85 -32 -276 -87 -282 -81 -2 2 -1 21 2 42 l7 38 87 24 c227 62 482 192 681
348 l65 51 32 -21 c18 -12 30 -25 27 -30z m-2595 -69 c185 -147 414 -271 636
-342 77 -25 160 -51 182 -56 33 -8 43 -16 46 -35 3 -14 4 -25 2 -25 -2 0 -47
11 -99 25 -294 79 -557 210 -802 401 -79 62 -84 68 -67 81 10 7 19 13 21 13 2
0 38 -28 81 -62z m2636 49 c16 -12 12 -18 -51 -69 -247 -200 -562 -356 -849
-422 l-62 -14 7 26 c6 22 19 28 106 52 143 38 233 72 371 140 127 62 326 190
404 259 51 46 50 45 74 28z m-4057 -150 c108 -168 297 -405 404 -508 l28 -26
-165 -164 -164 -164 -61 65 c-118 127 -253 291 -350 430 -57 81 -151 231 -147
234 20 15 383 226 389 226 3 0 33 -42 66 -93z m5640 -19 c106 -62 193 -115
193 -119 0 -10 -158 -247 -221 -332 -77 -102 -179 -223 -269 -319 l-69 -73
-161 160 c-88 88 -160 162 -160 165 0 3 30 37 66 75 107 115 230 271 327 417
51 76 94 138 96 138 3 0 91 -51 198 -112z m-2557 -234 c-10 -43 -8 -42 -45
-48 -17 -3 -41 -8 -55 -10 -27 -5 -159 -17 -227 -20 l-43 -2 0 38 c0 35 2 38
28 39 66 2 272 26 279 33 1 1 18 3 37 4 l34 2 -8 -36z m-11 -66 c-1 -23 -15
-50 -24 -48 -10 1 -91 -9 -128 -16 -10 -2 -61 -6 -113 -10 l-94 -7 0 27 c0 24
3 26 48 27 26 1 58 2 72 4 14 1 57 5 95 9 39 3 84 10 100 15 42 13 45 13 44
-1z m-45 -245 c-17 -104 -34 -201 -37 -218 -3 -16 -17 -97 -32 -180 -14 -82
-28 -159 -29 -170 -18 -112 -15 -105 -54 -106 -21 -1 -66 -2 -101 -3 l-64 -1
2 410 c1 225 4 412 7 414 3 3 22 6 42 7 65 2 196 16 237 24 22 4 45 8 51 9 7
1 0 -65 -22 -186z m-2459 -99 c129 -115 218 -184 363 -279 70 -46 135 -90 146
-97 17 -13 12 -25 -94 -211 -61 -108 -113 -197 -116 -197 -2 0 -46 26 -97 57
-134 83 -251 166 -376 268 -28 23 -154 134 -221 194 l-45 41 70 71 c220 224
258 259 269 246 6 -7 52 -49 101 -93z m4675 -223 c0 -10 -140 -138 -225 -207
-33 -27 -68 -56 -79 -66 -66 -61 -421 -296 -431 -286 -4 4 -180 311 -212 368
-16 29 -32 15 157 140 164 107 290 208 438 347 l35 33 158 -161 c88 -88 159
-164 159 -168z m-3992 -244 c176 -90 423 -187 580 -227 23 -6 42 -15 42 -19 0
-5 -27 -101 -60 -212 -33 -112 -60 -210 -60 -216 0 -7 -2 -13 -4 -13 -21 0
-269 83 -381 127 -154 61 -465 211 -465 224 0 9 81 155 177 322 25 43 48 76
52 75 3 -2 57 -29 119 -61z m3128 -157 c98 -173 100 -178 80 -190 -42 -26
-203 -108 -286 -144 -47 -21 -105 -47 -128 -57 -55 -25 -359 -126 -391 -131
-24 -3 -27 1 -46 72 -2 8 -27 93 -54 189 -28 96 -50 175 -48 176 1 0 74 24
162 53 176 58 327 120 480 199 118 61 88 83 231 -167z m-1476 18 c0 -10 -7
-18 -17 -19 -107 -5 -169 -6 -175 -2 -4 2 -5 10 -2 17 3 9 29 14 82 15 42 1
78 3 79 5 10 10 33 -1 33 -16z m-16 -102 c-4 -28 -10 -55 -15 -60 -4 -5 -43
-9 -86 -10 l-78 -1 1 55 1 55 44 5 c24 3 65 6 92 6 l47 2 -6 -52z m-854 -35
c132 -28 270 -49 370 -57 47 -3 86 -7 88 -9 2 -2 38 -192 48 -255 3 -19 12
-66 20 -105 21 -103 19 -113 -13 -110 -16 2 -68 6 -118 9 -120 8 -154 12 -330
41 -150 25 -302 59 -313 69 -3 3 2 30 10 58 102 354 113 388 128 383 8 -3 58
-14 110 -24z m1502 -193 l65 -223 -41 -13 c-23 -7 -57 -15 -76 -18 -19 -3 -37
-7 -40 -9 -3 -2 -25 -6 -50 -10 -25 -4 -47 -8 -50 -10 -13 -8 -312 -46 -400
-51 -52 -3 -101 -7 -109 -10 -13 -4 -12 24 4 108 2 11 13 74 25 141 39 234 37
227 73 228 18 0 41 2 52 4 11 2 49 6 85 10 36 4 72 8 80 10 14 2 43 7 125 21
17 2 64 13 105 23 41 10 78 19 81 20 3 1 35 -99 71 -221z m-676 77 c-3 -27 -8
-61 -11 -75 -3 -14 -8 -41 -11 -60 -3 -19 -11 -71 -19 -115 -8 -44 -18 -100
-23 -125 -7 -43 -8 -44 -47 -45 l-40 0 0 230 0 230 55 5 c107 10 103 12 96
-45z m-80 -472 c-2 -10 -16 -88 -31 -173 -41 -245 -43 -245 -44 -17 l-1 207
41 0 c34 0 40 -3 35 -17z"/>
<path d="M6624 10908 c2 -24 5 -49 5 -55 1 -7 8 -13 17 -13 23 0 15 104 -9
108 -15 3 -17 -3 -13 -40z"/>
<path d="M7279 10938 c0 -7 -2 -32 -4 -55 -3 -35 0 -43 13 -43 14 0 18 11 20
55 2 44 0 55 -13 55 -8 0 -15 -6 -16 -12z"/>
<path d="M6295 10900 c-3 -6 -3 -30 1 -55 5 -34 11 -45 24 -45 15 0 16 6 9 43
-4 23 -8 48 -9 55 0 14 -16 16 -25 2z"/>
<path d="M7617 10903 c-3 -4 -8 -29 -12 -55 -6 -40 -5 -48 8 -48 11 0 18 14
22 45 4 24 7 48 7 52 -1 11 -19 15 -25 6z"/>
<path d="M5963 10803 c11 -56 26 -83 42 -77 8 3 13 9 11 13 -2 3 -9 25 -15 49
-8 27 -17 42 -28 42 -12 0 -14 -7 -10 -27z"/>
<path d="M7931 10783 c-10 -37 -9 -48 1 -54 9 -6 17 5 29 39 16 50 15 62 -5
62 -8 0 -19 -21 -25 -47z"/>
<path d="M5640 10720 c0 -24 34 -90 46 -90 18 0 18 5 -2 57 -9 24 -23 43 -30
43 -8 0 -14 -4 -14 -10z"/>
<path d="M8246 10683 c-19 -56 -19 -53 -1 -53 14 0 45 59 45 86 0 32 -29 10
-44 -33z"/>
<path d="M5336 10591 c-10 -16 28 -91 47 -91 16 0 16 2 1 38 -9 20 -18 43 -21
50 -6 14 -19 16 -27 3z"/>
<path d="M8567 10588 c-3 -7 -12 -30 -21 -50 -16 -36 -15 -38 3 -38 12 0 23
13 35 43 9 23 16 46 16 50 0 12 -28 8 -33 -5z"/>
<path d="M5035 10440 c-3 -5 5 -29 18 -54 19 -35 27 -42 40 -35 14 8 13 15
-14 54 -33 48 -35 50 -44 35z"/>
<path d="M8854 10404 c-22 -37 -24 -48 -13 -54 9 -6 20 3 36 32 25 44 28 54
14 63 -6 3 -22 -15 -37 -41z"/>
<path d="M4750 10248 c0 -22 50 -77 65 -72 11 5 9 14 -12 45 -24 37 -53 52
-53 27z"/>
<path d="M9132 10224 c-17 -26 -21 -39 -13 -47 6 -6 12 -9 14 -6 36 44 56 77
50 82 -14 14 -29 6 -51 -29z"/>
<path d="M4485 10050 c-7 -11 45 -80 61 -80 24 0 22 14 -9 51 -34 41 -42 45
-52 29z"/>
<path d="M9402 10027 c-34 -35 -41 -57 -18 -57 13 0 66 57 66 71 0 21 -20 15
-48 -14z"/>
<path d="M4236 9822 c-7 -12 64 -83 75 -76 15 9 11 19 -22 52 -32 33 -44 38
-53 24z"/>
<path d="M9640 9795 c-23 -24 -31 -38 -24 -45 12 -12 88 56 79 71 -10 15 -19
11 -55 -26z"/>
<path d="M4010 9568 c0 -7 16 -26 36 -42 27 -21 38 -25 47 -17 9 9 4 19 -23
41 -37 31 -60 38 -60 18z"/>
<path d="M9863 9551 c-22 -20 -28 -32 -20 -40 12 -12 91 45 81 60 -9 16 -28 9
-61 -20z"/>
<path d="M3807 9306 c-3 -8 10 -27 33 -45 31 -25 40 -28 49 -17 9 10 4 19 -21
38 -49 37 -55 39 -61 24z"/>
<path d="M10073 9287 c-33 -23 -40 -33 -32 -44 9 -10 19 -7 50 18 22 17 39 35
39 39 0 20 -18 16 -57 -13z"/>
<path d="M3627 9018 c-5 -15 69 -62 83 -53 18 11 11 21 -29 43 -45 26 -48 26
-54 10z"/>
<path d="M10255 9009 c-16 -10 -34 -21 -40 -23 -6 -2 -6 -8 2 -16 9 -10 20 -7
52 11 38 21 48 39 25 45 -5 1 -22 -6 -39 -17z"/>
<path d="M3475 8719 c-8 -13 -9 -12 42 -37 35 -18 42 -19 47 -7 3 10 -8 21
-34 35 -46 23 -47 23 -55 9z"/>
<path d="M10398 8709 c-24 -12 -35 -24 -32 -33 5 -12 12 -11 47 4 23 11 43 26
45 34 5 21 -15 19 -60 -5z"/>
<path d="M3345 8410 c-4 -7 -3 -15 1 -20 15 -12 76 -30 85 -24 16 9 10 24 -13
33 -52 19 -67 21 -73 11z"/>
<path d="M10530 8405 c-35 -13 -48 -29 -31 -39 14 -9 93 24 88 37 -5 16 -18
16 -57 2z"/>
<path d="M3245 8090 c-9 -15 -4 -19 49 -35 43 -13 46 -13 46 4 0 12 -10 21
-27 25 -16 4 -35 9 -45 12 -9 3 -19 0 -23 -6z"/>
<path d="M10628 8088 c-26 -7 -38 -16 -38 -28 0 -16 4 -17 48 -6 27 7 47 18
47 26 0 18 -13 20 -57 8z"/>
<path d="M3170 7755 c0 -8 3 -16 8 -16 45 -7 80 -8 91 -4 24 9 -1 24 -52 30
-38 5 -47 3 -47 -10z"/>
<path d="M10688 7763 c-19 -3 -28 -10 -28 -23 0 -15 5 -17 33 -11 47 11 46 11
57 11 6 0 10 7 10 15 0 15 -15 17 -72 8z"/>
<path d="M1940 7483 c-60 -7 -138 -27 -171 -43 -42 -22 -101 -85 -127 -137
-105 -205 -41 -436 145 -529 57 -28 61 -29 213 -28 85 1 168 6 184 11 34 11
54 54 55 121 1 49 -11 55 -29 12 -34 -81 -122 -123 -228 -109 -79 11 -132 38
-191 97 -168 169 -139 453 56 543 69 31 191 32 250 1 46 -24 88 -72 98 -115
13 -50 23 -38 30 36 4 39 9 80 11 90 3 20 -3 23 -63 31 -24 3 -60 8 -80 11
-54 8 -124 11 -153 8z"/>
<path d="M11463 7447 c17 -11 37 -27 44 -36 27 -35 57 -136 108 -361 72 -319
74 -328 87 -306 5 10 54 133 109 273 54 141 102 260 106 264 4 4 37 -76 72
-179 71 -208 131 -354 147 -359 11 -4 45 103 119 372 76 274 94 317 140 336
13 5 -7 8 -60 10 -44 1 -90 3 -102 4 -13 1 -23 -2 -23 -6 0 -5 6 -9 14 -9 29
0 43 -27 39 -72 -8 -98 -86 -422 -110 -461 -3 -5 -36 84 -74 197 -63 191 -134
365 -143 355 -4 -3 -191 -489 -208 -539 -5 -13 -6 -13 -11 0 -4 8 -22 96 -42
195 -39 196 -54 315 -38 315 5 0 17 6 26 13 14 10 -5 12 -108 13 l-124 0 32
-19z"/>
<path d="M3132 7423 c2 -12 17 -18 51 -20 42 -3 48 -1 45 13 -2 13 -15 18 -51
20 -40 2 -48 0 -45 -13z"/>
<path d="M10705 7431 c-17 -16 0 -27 42 -27 36 1 49 5 51 18 3 14 -5 16 -43
15 -25 0 -48 -3 -50 -6z"/>
<path d="M3143 6763 c-7 -3 -13 -11 -13 -19 0 -12 10 -14 48 -10 26 2 48 5 50
5 1 1 2 8 2 16 0 11 -10 14 -37 13 -21 -1 -44 -3 -50 -5z"/>
<path d="M10700 6756 c0 -9 3 -16 8 -17 4 0 27 -3 50 -6 39 -4 43 -3 40 13 -5
25 -98 34 -98 10z"/>
<path d="M3249 6445 c-5 -4 -43 -13 -66 -14 -7 -1 -10 -8 -6 -17 4 -12 14 -14
42 -9 20 4 42 8 49 8 7 0 12 7 10 15 -3 16 -21 26 -29 17z"/>
<path d="M10655 6440 c-11 -18 7 -29 54 -32 53 -4 68 17 19 27 -18 3 -40 9
-50 11 -9 3 -19 0 -23 -6z"/>
<path d="M3285 6111 c-18 -4 -31 -14 -33 -25 -3 -13 1 -17 15 -13 10 3 33 8
51 12 18 4 32 13 32 21 0 15 -15 16 -65 5z"/>
<path d="M10580 6107 c0 -9 13 -17 36 -21 19 -4 42 -10 50 -13 8 -3 14 1 14
10 0 20 -8 25 -58 33 -34 5 -42 4 -42 -9z"/>
<path d="M3392 5793 c-24 -8 -41 -20 -39 -26 8 -23 97 2 97 28 0 18 -3 18 -58
-2z"/>
<path d="M10485 5799 c-9 -13 -8 -14 39 -33 47 -20 56 -20 56 -2 0 8 -18 21
-40 30 -48 19 -47 19 -55 5z"/>
<path d="M3523 5486 c-30 -15 -40 -25 -34 -34 7 -11 16 -10 50 7 39 20 50 34
34 44 -5 3 -27 -5 -50 -17z"/>
<path d="M10356 5503 c-13 -13 -5 -23 34 -43 38 -19 60 -20 60 -1 0 10 -87 51
-94 44z"/>
<path d="M3673 5188 c-33 -20 -40 -32 -25 -42 11 -7 85 37 84 49 -2 17 -26 14
-59 -7z"/>
<path d="M10200 5198 c0 -11 69 -58 84 -58 4 0 6 8 6 18 0 9 -16 25 -36 35
-41 20 -54 21 -54 5z"/>
<path d="M3858 4909 c-22 -18 -35 -36 -31 -44 4 -12 14 -8 48 16 27 19 41 37
38 45 -7 19 -13 18 -55 -17z"/>
<path d="M10022 4928 c-8 -8 1 -21 30 -44 41 -32 58 -35 58 -11 -1 20 -76 67
-88 55z"/>
<path d="M4061 4645 c-48 -44 -43 -72 7 -37 41 30 52 46 43 61 -7 10 -19 4
-50 -24z"/>
<path d="M9822 4668 c-10 -10 -5 -19 25 -45 21 -18 41 -33 45 -33 21 0 13 21
-20 53 -30 30 -40 35 -50 25z"/>
<path d="M4282 4400 c-26 -30 -30 -40 -19 -49 11 -8 18 -5 33 12 45 53 45 54
32 64 -9 7 -22 -1 -46 -27z"/>
<path d="M9596 4422 c-2 -4 11 -25 31 -46 26 -27 38 -34 44 -25 5 8 -3 25 -19
45 -27 32 -46 41 -56 26z"/>
<path d="M4531 4174 c-25 -27 -30 -39 -22 -47 9 -9 20 -2 45 28 31 37 37 55
17 55 -4 0 -22 -16 -40 -36z"/>
<path d="M9347 4203 c-3 -5 10 -26 29 -47 26 -30 37 -37 46 -28 8 8 3 20 -18
46 -28 34 -48 44 -57 29z"/>
<path d="M4796 3973 c-24 -34 -26 -53 -6 -53 13 0 60 72 54 82 -10 16 -23 8
-48 -29z"/>
<path d="M9087 4004 c-9 -9 44 -84 59 -84 19 0 18 4 -8 50 -22 38 -37 48 -51
34z"/>
<path d="M5075 3794 c-19 -33 -24 -49 -16 -57 12 -12 11 -14 44 40 22 34 24
43 13 52 -11 9 -20 2 -41 -35z"/>
<path d="M8815 3829 c-7 -11 35 -99 47 -99 18 0 17 23 -1 59 -23 45 -37 56
-46 40z"/>
<path d="M5372 3642 c-20 -44 -21 -62 -2 -62 10 0 33 40 44 76 4 14 2 23 -7
27 -9 3 -21 -10 -35 -41z"/>
<path d="M8522 3681 c-11 -6 -9 -17 9 -54 23 -47 33 -55 43 -38 5 7 -30 101
-37 101 -1 0 -8 -4 -15 -9z"/>
<path d="M5682 3526 c-24 -67 -3 -95 24 -31 17 43 18 51 1 58 -9 3 -18 -7 -25
-27z"/>
<path d="M8216 3551 c-6 -9 12 -70 24 -85 5 -4 13 -5 18 -2 7 4 5 22 -5 51
-14 44 -26 55 -37 36z"/>
<path d="M6005 3447 c-2 -6 -8 -29 -14 -49 -8 -34 -7 -38 9 -38 11 0 19 10 23
28 3 15 8 34 12 43 4 10 0 19 -10 23 -9 3 -18 0 -20 -7z"/>
<path d="M7904 3453 c-16 -5 4 -83 23 -90 21 -8 23 0 12 43 -12 44 -19 53 -35
47z"/>
<path d="M6326 3378 c-15 -72 -15 -86 -1 -92 16 -6 24 16 28 73 2 39 -20 55
-27 19z"/>
<path d="M7583 3392 c-8 -5 -9 -20 -3 -52 5 -25 9 -48 10 -52 0 -4 7 -5 15 -2
11 5 13 17 8 52 -6 53 -13 64 -30 54z"/>
<path d="M6657 3344 c-4 -4 -7 -27 -7 -51 0 -32 4 -43 15 -43 8 0 15 6 16 13
4 55 2 81 -7 84 -5 2 -13 0 -17 -3z"/>
<path d="M7249 3346 c-2 -3 -3 -25 -1 -50 3 -32 8 -46 19 -46 11 0 13 11 11
47 -3 41 -15 62 -29 49z"/>
<path d="M2409 2529 c-409 -413 -745 -754 -747 -759 -16 -45 107 72 679 646
365 366 704 706 752 754 77 77 97 110 68 110 -4 0 -343 -338 -752 -751z"/>
<path d="M10766 3272 c-3 -5 334 -350 749 -768 561 -565 756 -756 765 -748 12
12 -62 89 -998 1027 -273 273 -499 497 -503 497 -4 0 -10 -4 -13 -8z"/>
<path d="M6702 2281 c-7 -21 -12 -50 -12 -65 l0 -27 34 35 33 36 95 0 95 0 -1
-314 c-1 -173 -3 -316 -6 -319 -3 -2 -18 -11 -34 -19 -26 -14 -19 -15 100 -15
114 -1 124 1 97 12 -63 27 -65 34 -65 347 0 156 1 289 1 296 1 16 147 16 181
-1 14 -7 31 -26 39 -42 l15 -30 8 33 c5 19 8 50 6 70 -3 35 -5 37 -33 33 -51
-7 -468 -5 -506 2 -35 7 -36 6 -47 -32z"/>
</g>
</svg>
