<svg id="Layer_1" data-name="Layer 1" xmlns="http://www.w3.org/2000/svg" viewBox="0 0 139.56 63.78"><title>BET_Networks</title><polygon points="31.41 50.86 37.25 50.86 37.25 63.78 39.61 63.78 39.61 50.86 45.47 50.86 45.47 48.71 31.41 48.71 31.41 50.86"/><path d="M303,424.77a2,2,0,0,1-.68,1.53,2.36,2.36,0,0,1-1.66.62h-2.34a2.28,2.28,0,0,1-.91-0.18,2.57,2.57,0,0,1-.74-0.48,2.33,2.33,0,0,1-.51-0.69,1.8,1.8,0,0,1-.19-0.79V414h-2.34v10.77a2,2,0,0,1-.68,1.53,2.36,2.36,0,0,1-1.66.62H289a2.37,2.37,0,0,1-1.67-.62,2,2,0,0,1-.68-1.53V414H284.3v10.76a3.81,3.81,0,0,0,.37,1.67,4.43,4.43,0,0,0,1,1.37,4.91,4.91,0,0,0,3.3,1.27h2.34a4.88,4.88,0,0,0,2-.4,4.52,4.52,0,0,0,1.55-1.09,4.81,4.81,0,0,0,3.52,1.48h2.34A4.91,4.91,0,0,0,304,427.8a4.42,4.42,0,0,0,1-1.37,3.83,3.83,0,0,0,.37-1.67V414H303v10.77Z" transform="translate(-237.17 -365.29)"/><path d="M249.85,415.27a4.91,4.91,0,0,0-3.31-1.27h-4.69a4.92,4.92,0,0,0-3.3,1.27,4.42,4.42,0,0,0-1,1.37,3.76,3.76,0,0,0-.38,1.67v10.76h2.34V418.3a2,2,0,0,1,.68-1.53,2.37,2.37,0,0,1,1.67-.62h4.69a2.36,2.36,0,0,1,1.66.62,2,2,0,0,1,.68,1.53v10.77h2.34V418.31a3.83,3.83,0,0,0-.38-1.67,4.48,4.48,0,0,0-1-1.37" transform="translate(-237.17 -365.29)"/><path d="M255.75,414.35a4.89,4.89,0,0,0-1.49.93,4.42,4.42,0,0,0-1,1.36,3.82,3.82,0,0,0-.38,1.67,4,4,0,0,0,.42,1.81,4.16,4.16,0,0,0,1.17,1.42A4.35,4.35,0,0,0,253.3,423a3.91,3.91,0,0,0-.42,1.8,3.8,3.8,0,0,0,.38,1.67,4.45,4.45,0,0,0,1,1.37,4.9,4.9,0,0,0,1.49.92,4.84,4.84,0,0,0,1.82.35h9.38v-2.15h-9.38a2.37,2.37,0,0,1-1.67-.62,2.06,2.06,0,0,1,0-3.06,2.38,2.38,0,0,1,1.67-.63h9.38v-2.14h-9.38a2.36,2.36,0,0,1-1.67-.63,2.08,2.08,0,0,1,0-3.07,2.37,2.37,0,0,1,1.67-.63h9.38V414h-9.38a4.78,4.78,0,0,0-1.82.35" transform="translate(-237.17 -365.29)"/><path d="M350.18,418.32a2,2,0,0,1-.68,1.53,2.37,2.37,0,0,1-1.67.63h-7V414h-2.34v15.07h2.34v-6.45h7a2.38,2.38,0,0,1,1.67.63,2,2,0,0,1,.68,1.53v4.3h2.34v-4.31a3.91,3.91,0,0,0-.42-1.8,4.32,4.32,0,0,0-1.17-1.43,4.1,4.1,0,0,0,1.17-1.42,4,4,0,0,0,.42-1.81V414h-2.34v4.31Z" transform="translate(-237.17 -365.29)"/><path d="M357,414.35a4.77,4.77,0,0,0-1.49.93,4.4,4.4,0,0,0-1,1.36,3.92,3.92,0,0,0,0,3.34,4.47,4.47,0,0,0,1,1.37,4.91,4.91,0,0,0,3.3,1.27h4.68a2.38,2.38,0,0,1,1.66.63,2.07,2.07,0,0,1,0,3.06,2.37,2.37,0,0,1-1.66.62h-9.36v2.15h9.36a4.94,4.94,0,0,0,3.3-1.27,4.42,4.42,0,0,0,1-1.37,3.86,3.86,0,0,0,0-3.33,4.34,4.34,0,0,0-1-1.36,4.83,4.83,0,0,0-1.49-.92,4.78,4.78,0,0,0-1.81-.35h-4.68a2.36,2.36,0,0,1-1.66-.63,2.08,2.08,0,0,1,0-3.07,2.37,2.37,0,0,1,1.66-.63h9.36V414h-9.37a4.74,4.74,0,0,0-1.81.35" transform="translate(-237.17 -365.29)"/><path d="M336.39,420.11a4,4,0,0,0,.42-1.81,3.84,3.84,0,0,0-.37-1.67,4.42,4.42,0,0,0-1-1.37,4.9,4.9,0,0,0-1.49-.93,4.78,4.78,0,0,0-1.81-.35h-4.69a4.77,4.77,0,0,0-1.81.35,4.86,4.86,0,0,0-1.49.93,4.47,4.47,0,0,0-1,1.37,3.83,3.83,0,0,0-.37,1.67v10.76h2.34v-6.45h7a2.36,2.36,0,0,1,1.66.62,2,2,0,0,1,.68,1.53v4.3h2.34v-4.31a3.92,3.92,0,0,0-.42-1.8,4.34,4.34,0,0,0-1.17-1.43,4.09,4.09,0,0,0,1.17-1.42m-2.6-.27a2.36,2.36,0,0,1-1.66.63h-7v-2.16a2,2,0,0,1,.68-1.54,2.38,2.38,0,0,1,1.67-.62h4.69a2.36,2.36,0,0,1,1.66.62,2.08,2.08,0,0,1,0,3.07m-14.07-4.57a4.86,4.86,0,0,0-1.49-.93,4.78,4.78,0,0,0-1.82-.35h-4.69a4.93,4.93,0,0,0-3.3,1.27,4.44,4.44,0,0,0-1,1.37,3.8,3.8,0,0,0-.37,1.67v6.46a3.79,3.79,0,0,0,.37,1.67,4.46,4.46,0,0,0,1,1.37,4.84,4.84,0,0,0,1.49.92,4.79,4.79,0,0,0,1.81.35h4.69a4.8,4.8,0,0,0,1.82-.35,4.9,4.9,0,0,0,1.49-.92,4.45,4.45,0,0,0,1-1.37,3.82,3.82,0,0,0,.38-1.67v-6.46a3.82,3.82,0,0,0-.38-1.67,4.43,4.43,0,0,0-1-1.37m-1,9.49a2,2,0,0,1-.68,1.53,2.38,2.38,0,0,1-1.67.62h-4.69a2.37,2.37,0,0,1-1.66-.62,2,2,0,0,1-.68-1.53V418.3a2,2,0,0,1,.68-1.53,2.36,2.36,0,0,1,1.66-.62h4.69a2.36,2.36,0,0,1,1.67.62,2,2,0,0,1,.68,1.53v6.46Z" transform="translate(-237.17 -365.29)"/><path d="M376.73,382.4H359.08l-5.42-17.08-5.42,17.08H330.59l14.31,10.23-5.49,16.63,14.25-10.32,14.26,10.32-5.49-16.63Zm-23.06,11.39-6.21,4.5,2.39-7.25-6.23-4.46h7.69l2.36-7.68,2.36,7.68h7.69L357.49,391l2.4,7.25Z" transform="translate(-237.17 -365.29)"/><path d="M347.11,365.29h-52.9c-4.82,0-7.73.66-10.1,2.11a18.28,18.28,0,0,0-5.28,5.09,21.62,21.62,0,0,0-2.43,4.4s0,0,0,0c0-5.74-3.7-10.37-8.92-11.16a44.12,44.12,0,0,0-5.42-.4H237.17v44h24.37c6.34,0,9.11-.72,11.49-2.91,2.18-2,3.3-5.09,3.3-8.72,0-.1,0-0.2,0-0.3,1.82,5.16,5,8.91,9.24,10.4,3,1.06,6.8,1.52,12.28,1.52H308V398h-7.31c-8.79,0-11.68.78-13.21-5.64H308v-9.94l-20.54,0s1-5.82,7.12-5.82h20.22v32.73h12.77V376.61h16.05ZM248,376.64h13.8c3.42,0,3.25,2.86,3.25,2.86,0,3-3.26,2.87-3.26,2.87H248v-5.74Zm17.07,18.54c0,3-3.26,2.87-3.26,2.87H248v-5.73h13.79c3.41,0,3.25,2.86,3.25,2.86m4.93-7.84a10.17,10.17,0,0,0,4.93-4.71,34,34,0,0,0-.26,4.32,35.76,35.76,0,0,0,.34,4.92,10.27,10.27,0,0,0-5-4.53" transform="translate(-237.17 -365.29)"/></svg>