<svg xmlns="http://www.w3.org/2000/svg" viewBox="0 0 76.46 20.96"><defs><style>.cls-1,.cls-2{fill:#106cb6;}.cls-1{fill-rule:evenodd;}</style></defs><title>Make a wish</title><path class="cls-1" d="M134.1,22.46c0.31,0.25,0,.3,0,0.47H134l0,0V22.65l0.19-.19" transform="translate(-70.12 -22.46)"/><path class="cls-1" d="M130.46,23.4a0.29,0.29,0,0,1,.23.39l-0.12.18-0.1,0-0.11-.33,0.09-.19" transform="translate(-70.12 -22.46)"/><path class="cls-1" d="M136.66,24.11a0.38,0.38,0,0,1,.3.23c-0.17.07-.32,0.15-0.45,0h0l0.1-.19" transform="translate(-70.12 -22.46)"/><path class="cls-1" d="M136,24.31l0.3,0v0a0.6,0.6,0,0,1-.2.35c-0.1,0-.28-0.19-0.19-0.2l0-.19,0,0" transform="translate(-70.12 -22.46)"/><path class="cls-1" d="M130,27.17l0.25,0.09s-0.29.41-.29,0.29a0.3,0.3,0,0,1,0-.38" transform="translate(-70.12 -22.46)"/><path class="cls-1" d="M129,27.48l0.45,0.08v0c0,0.25-.58.5-0.58,0.35l-0.05-.09a2.07,2.07,0,0,1,.19-0.38" transform="translate(-70.12 -22.46)"/><path class="cls-2" d="M100.4,35.21a2.57,2.57,0,0,1-.68.68,2.58,2.58,0,0,1,.68.69,2.82,2.82,0,0,1,.68-0.69,2.79,2.79,0,0,1-.69-0.68" transform="translate(-70.12 -22.46)"/><path class="cls-2" d="M116.41,35.17a2.59,2.59,0,0,1-.68.68,2.69,2.69,0,0,1,.68.69,2.82,2.82,0,0,1,.68-0.69,2.74,2.74,0,0,1-.68-0.68" transform="translate(-70.12 -22.46)"/><path class="cls-2" d="M111.29,38.87V39l-0.31.06a0.15,0.15,0,0,0-.18.13c0,0.17.27,0.12,0.59,0.12l2.31,0c0.38,0,.54,0,0.54-0.14a0.14,0.14,0,0,0-.18-0.12,2.45,2.45,0,0,1-.45,0,1.53,1.53,0,0,1-.92-1.1c-0.39-.88-1.07-2.62-1.66-4-0.46-1.1-.79-2-0.9-2.28a0.53,0.53,0,0,0-.36-0.38h0a0.42,0.42,0,0,0-.46.27l-2.78,6.61c-0.23.55-.27,0.84-0.73,0.9l-0.17,0a0.14,0.14,0,0,0-.17.12c0,0.14.15,0.14,0.25,0.14l0.72,0h0.24l1.3,0c0.08,0,.23,0,0.23-0.14s-0.1-.12-0.2-0.12h-0.16c-0.35,0-.39-0.15-0.39-0.28a1.84,1.84,0,0,1,.16-0.61l1.78-4.6,2,5.29" transform="translate(-70.12 -22.46)"/><path class="cls-2" d="M98.81,32.78H98.76l-0.38,0H94.75c-0.09,0-.23,0-0.23.11S94.65,33,94.7,33a0.59,0.59,0,0,1,.21,0c0.29,0.06.3,0.19,0.32,0.45s0,0.5,0,1.79V36.8c0,0.77,0,1.44,0,1.79A0.57,0.57,0,0,1,95,39a1.64,1.64,0,0,1-.31,0s-0.18,0-.18.1,0.07,0.12.21,0.12l0.78,0H96l0.67,0c0.43,0,1.09,0,1.92,0,0.34,0,.45,0,0.51-0.24a6.36,6.36,0,0,0,.12-0.95c0-.08,0-0.18-0.1-0.18S99,38,99,38.09a0.57,0.57,0,0,1-.38.53,3.14,3.14,0,0,1-1,.1c-0.91,0-1-.07-1-0.61v-2l0-.05,0.73,0a0.44,0.44,0,0,1,.47.31l0,0.16v0.08L98,36.75c0.11,0,.11-0.13.11-0.19s0-.34,0-0.5a4.08,4.08,0,0,1,.06-0.54V35.44l-0.1-.1-0.15.11h0a0.63,0.63,0,0,1-.4.12l-0.89,0,0-.06V33.39l0-.05c0.17,0,1.24,0,1.39,0,0.44,0.05.51,0.15,0.57,0.28L98.64,34a0.12,0.12,0,0,0,.11.15A0.12,0.12,0,0,0,98.88,34l0-.39V33.42A3.38,3.38,0,0,1,99,33V32.87l-0.08-.11Z" transform="translate(-70.12 -22.46)"/><path class="cls-2" d="M129.75,32.84h-1.65c-0.12,0-.25,0-0.25.1A0.14,0.14,0,0,0,128,33a1.26,1.26,0,0,1,.31,0c0.18,0,.23.17,0.24,0.44s0,0.5,0,1.79V36.8c0,0.83,0,1.48,0,1.84s-0.05.37-.19,0.39a1.7,1.7,0,0,1-.31,0s-0.18,0-.18.1,0.07,0.12.21,0.12l0.7,0h0.87l1.07,0c0.18,0,.2-0.08.2-0.12s0-.1-0.18-0.1a3.85,3.85,0,0,1-.45,0,0.35,0.35,0,0,1-.33-0.38c0-.36,0-1,0-1.85V35.31c0-1.29,0-1.52,0-1.79s0.09-.41.3-0.45l0.26,0a0.14,0.14,0,0,0,.17-0.12c0-.1-0.15-0.1-0.22-0.1h-0.73Z" transform="translate(-70.12 -22.46)"/><path class="cls-2" d="M131.83,34.28a2.82,2.82,0,0,0,1.43,2.1,3.65,3.65,0,0,1,1.31,1.31,1,1,0,0,1-1.07,1.08,1.32,1.32,0,0,1-1.34-.77,1.86,1.86,0,0,1-.09-0.4c0-.14-0.05-0.23-0.13-0.23s-0.17.22-.18,0.29v0c0,0.16,0,.64,0,1.07a0.3,0.3,0,0,0,.23.36,3.88,3.88,0,0,0,1.43.26,3.29,3.29,0,0,0,1.59-.35,1.48,1.48,0,0,0,.85-1.41c0-1.16-1-1.61-1.5-2s-1.25-.75-1.25-1.46a0.78,0.78,0,0,1,.89-0.8,1.21,1.21,0,0,1,1,.34,1.27,1.27,0,0,1,.27.53c0,0.15.11,0.22,0.15,0.21a0.3,0.3,0,0,0,.12-0.31c0-.46,0-0.7,0-0.85V33.17a0.43,0.43,0,0,0-.38-0.24,4.12,4.12,0,0,0-1.09-.2c-1.26,0-2.19.51-2.19,1.55" transform="translate(-70.12 -22.46)"/><path class="cls-2" d="M143.22,32.84h-1l-0.93,0c-0.08,0-.22,0-0.22.11s0.13,0.11.18,0.11a1.71,1.71,0,0,1,.34,0,0.39,0.39,0,0,1,.36.45c0,0.27,0,.5,0,1.79v0.18l0,0H138.8l0,0V35.31c0-1.29,0-1.52,0-1.79s0.09-.41.3-0.45l0.25,0c0.06,0,.19,0,0.19-0.11s-0.14-.11-0.22-0.11h-1.64l-0.93,0c-0.08,0-.22,0-0.22.11s0.13,0.11.19,0.11a1.75,1.75,0,0,1,.34,0,0.39,0.39,0,0,1,.36.45c0,0.27,0,.5,0,1.79V36.8c0,0.77,0,1.44,0,1.79s-0.08.41-.23,0.44a1.64,1.64,0,0,1-.31,0s-0.17,0-.17.1,0.07,0.12.21,0.12l0.78,0h0.89l1,0c0.18,0,.21-0.07.21-0.12s0-.1-0.18-0.1a3.86,3.86,0,0,1-.45,0,0.37,0.37,0,0,1-.32-0.43c0-.36,0-1,0-1.8V36.22l0,0H142l0,0V36.8c0,0.77,0,1.44,0,1.79s-0.09.41-.23,0.44a1.67,1.67,0,0,1-.31,0s-0.18,0-.18.1,0.16,0.12.22,0.12l0.77,0h1l1,0c0.19,0,.21-0.07.21-0.12s0-.1-0.17-0.1a3.88,3.88,0,0,1-.45,0,0.37,0.37,0,0,1-.32-0.43c0-.36,0-1,0-1.8V35.31c0-1.29,0-1.52,0-1.79s0.09-.41.3-0.45l0.25,0c0.06,0,.19,0,0.19-0.11s-0.14-.11-0.22-0.11h-0.69Z" transform="translate(-70.12 -22.46)"/><path class="cls-2" d="M127.54,31.37h-0.33l-0.94,0c-0.1,0-.28,0-0.28.12s0.08,0.12.22,0.12c0.43,0,.48.15,0.48,0.27,0,0.35-1.38,3.85-1.55,4.29-0.07-.14-1.8-3.74-2.15-4.48a0.42,0.42,0,0,0-.32-0.36,0.41,0.41,0,0,0-.34.37c-1.7,4.24-1.73,4.18-1.91,4.61-0.68-2-1.1-3.11-1.21-3.55l-0.07-.24a4.26,4.26,0,0,1-.17-0.68,0.17,0.17,0,0,1,.1-0.19l0.26,0c0.08,0,.22,0,0.22-0.12s-0.19-.12-0.25-0.12l-1.23,0h-0.41l-1,0c-0.09,0-.27,0-0.27.12s0.12,0.12.2,0.12a1,1,0,0,1,.41.09,1.45,1.45,0,0,1,.38.7l2.26,6.44a0.46,0.46,0,0,0,.34.39,0.49,0.49,0,0,0,.39-0.4c0.42-.87,1.71-4.09,2.07-5l2.15,4.88c0.16,0.38.21,0.52,0.36,0.52s0.23-.15.34-0.5c0.57-1.65,1.66-4.78,2.13-6l0.09-.23a1.37,1.37,0,0,1,.49-0.83,1.26,1.26,0,0,1,.36,0c0.15,0,.18-0.07.18-0.13s-0.16-.11-0.23-0.11Z" transform="translate(-70.12 -22.46)"/><path class="cls-1" d="M133.92,23.27h0l-0.09.49c0,0.13,0,.27,0,0.4a4.26,4.26,0,0,0-.32,1.07h0.1a8.93,8.93,0,0,0,1.53-.37v0l0.24-.15h0.1v0h0v0.24l-0.26.11-0.25.26a0.93,0.93,0,0,0-.51.42,0.66,0.66,0,0,0-.61.18,0.63,0.63,0,0,0-.25.28,2.61,2.61,0,0,0,.4,1.08,1.51,1.51,0,0,1,.52.87,0.84,0.84,0,0,1-.59-0.53,2.5,2.5,0,0,0-1.12-.62c-0.1.16-.26,0.28-0.37,0.45l-0.2.49-0.21.17-0.36.55a2.38,2.38,0,0,1-.31.4,0.67,0.67,0,0,1-.44.19c0-.06-0.25-0.36,0-0.3l0.14-.37c0.16-.1.65-0.71,0.33-0.86l0.1-.1,0-.19a0.72,0.72,0,0,0,.34-0.29V26.79a2.32,2.32,0,0,0-.59.11,2.35,2.35,0,0,1-.68.35h-0.1a0.34,0.34,0,0,1,.38-0.48l0.32-.18a2.24,2.24,0,0,0,.71-0.68,1.74,1.74,0,0,0-1.08-1.57l0-.14,0.09-.29h0.1L131.12,24h0.15l0.1,0a0.46,0.46,0,0,0,.41.42,7,7,0,0,0,.9.64h0.1v0l0.38-.43c0.29-.45.42-1,0.76-1.41" transform="translate(-70.12 -22.46)"/><path class="cls-1" d="M135,28.38h0.2c0,0.17,0,.57-0.28.58v0l-0.11-.33,0.19-.2" transform="translate(-70.12 -22.46)"/><path class="cls-1" d="M110.66,29.38c0,0.05.17,0.33,0,.33a0.41,0.41,0,0,0-.34.2,1.16,1.16,0,0,0-1.1-.09l-0.14,0a0.39,0.39,0,0,1,.34-0.29v0l0.05,0a2.42,2.42,0,0,0,.64,0l0,0a0.71,0.71,0,0,1,.4,0V29.43l0,0" transform="translate(-70.12 -22.46)"/><path class="cls-1" d="M108.87,29.82l0.14-.21-0.07,0-0.28,0-0.09.11,0.06,0.06v0.06c0.12,0,.18,0,0.25,0" transform="translate(-70.12 -22.46)"/><path class="cls-1" d="M108.32,29.83s0.07,0.06.1-.06l0-.1h-0.2L108,29.8v0.1l0.05,0a0.53,0.53,0,0,0,.24-0.09" transform="translate(-70.12 -22.46)"/><path class="cls-1" d="M111.14,29.63c0.06,0,.29.11,0.3,0h0.1a1.88,1.88,0,0,0,.63.31h0.2a3.28,3.28,0,0,0,.09.43c-0.58,0-.92-0.46-1.47-0.48v-0.1h0l0.11-.19" transform="translate(-70.12 -22.46)"/><path class="cls-1" d="M125.8,36.1l-0.11.08,0,0.14c-0.21.29-.22,0-0.31,0.36,0,0.1,0-.19-0.06-0.08s0,0.09-.06.33-0.17,0-.43.26-0.13.4-.25,0.42c-0.29.06-.54,0.72-0.67,0.46a1,1,0,0,0-.37.22,2.38,2.38,0,0,1-.45.66l-0.19.05c0,0.28-.29.31-0.33,0.63h-0.05v0l-0.2,0a2,2,0,0,1-.58.4l-0.15-.23h-0.15A2.36,2.36,0,0,1,120,41.21a0.76,0.76,0,0,1-.28.2v0h0.05c0-.07,0-0.19-0.06-0.19l-0.15,0a1.69,1.69,0,0,1-1,.76,0.66,0.66,0,0,1-.26.12V41.87h-0.15a3.44,3.44,0,0,1-.29.39c0-.11-0.1-0.3-0.1-0.33-0.31,0-.43.58-0.73,0.59a12.76,12.76,0,0,0-1.52.46c-0.16-.38-0.89.28-0.89,0.12a0.53,0.53,0,0,0-.25-0.09c-0.23.26-.34,0-0.59,0l0-.21a0.52,0.52,0,0,0-.32.46h0l-0.05-.09h-0.1l0,0a3.82,3.82,0,0,0-.63.05,1.16,1.16,0,0,1-.26.11,0.81,0.81,0,0,0-.74-0.07l-0.35,0-0.09.14-0.05,0-0.1-.09a2.79,2.79,0,0,1-1.64-.2l-0.1.05-0.14.1H109a0.77,0.77,0,0,0-.62-0.6,0.26,0.26,0,0,0-.18.24h0a0.65,0.65,0,0,0-.35,0,0.43,0.43,0,0,0-.33-0.1,4.35,4.35,0,0,1-.43-0.21,1.91,1.91,0,0,0-.69,0l0-.15-0.25-.23h0a0.82,0.82,0,0,0,.09-0.33,1.12,1.12,0,0,0-.47,0,1.41,1.41,0,0,1-.41.24c0-.43-0.8-0.49-0.81-0.65V41.25l-0.29.1V41.26h0c0-.21.05-0.41,0.08-0.62h-0.15l-0.29.29L104,40.84a2.87,2.87,0,0,1-1-1H102.9l0.1-.15h-0.15c0-.11,0-0.39,0-0.5,0.13-.71-0.15-0.3-0.35-0.3,0-.17-0.08-0.67-0.31-0.66v0a1.46,1.46,0,0,0-.1-0.9,1.11,1.11,0,0,0,0-.46l-0.18-.15v0l0.15-.1-0.05,0-0.15-.23c0.07,0,.38.1,0.39-0.1a0.65,0.65,0,0,0-.39-0.24l0.06,0,0-.05,0,0a1.07,1.07,0,0,1,.16-0.79,1,1,0,0,0-.1-0.25,1.07,1.07,0,0,0,.09-0.72,1.85,1.85,0,0,1,.58-0.54l-0.05-.19,0.24-.15c0-.07-0.1-0.29,0-0.29l0.17-.15a2.92,2.92,0,0,1,.38-0.55,1.3,1.3,0,0,0,.6-0.73h0.05v0l0.2,0c0-.07.23-0.53,0.23-0.39h0.1c0.56-.48.24-0.32,0.75-0.34l0,0V30.54h0.3a0.58,0.58,0,0,1,.54-0.12V30.17l0.1-.05h0.25v0l0.45,0,0.2-.05v0.05l0,0c-0.3.14-.63,0.29-0.91,0.46a2.6,2.6,0,0,1-.6.35c0-.18-0.24.18-0.37,0.33s-0.36.3-.5,0.44a1.15,1.15,0,0,1-.09.2,3,3,0,0,0-.44.39,1.58,1.58,0,0,1-.26.66c-0.2,0-.25.31-0.13,0.31v0.1a0.41,0.41,0,0,0-.29.46c-0.29,0-.07.2-0.09,0.3l0,0.29-0.17.18a1.3,1.3,0,0,1,0,.31c-0.06.1-.11,0.07-0.14,0.14s0.07,0.14.06,0.25l-0.14.25c0.11,0.09,0,.18,0,0.24s0.22,0.16.14,0.33a0.41,0.41,0,0,0-.08.34,0.53,0.53,0,0,1,.12.32c0,0.09-.07.2,0,0.2s0.1,0.38.4,0.37v0.09a0.45,0.45,0,0,0-.18.29,0.42,0.42,0,0,0,0,.34,1.07,1.07,0,0,1,.3.31,0.33,0.33,0,0,0,.1.31,0.38,0.38,0,0,0,.11.22,1,1,0,0,1,.39.31l0.07,0.25a0.41,0.41,0,0,1,.33.46c0.16,0,.25,0,0.4,0,0,0.43.14,0.25,0.36,0.42a0.45,0.45,0,0,0,.6.36v0L106.25,41a2.22,2.22,0,0,0,.95.41l0.06,0.19c0.34,0,.42.28,0.7,0.27l0.1-.1v0a0.31,0.31,0,0,1,.35.18,0.69,0.69,0,0,1,.5.08,3.94,3.94,0,0,1,.84.17l0.05,0.09h0.1v0l0.1-.14,0,0,0.05,0.14c0.28-.08.49-0.34,0.54-0.3a0.51,0.51,0,0,0,.35.37V42.33l0.2-.1h0.14v0l0,0,0,0h0.05l0,0s0.34,0,.53,0a0.26,0.26,0,0,0,.3.28v0l0.09-.19,0.2,0.09v0l0-.1,0.1,0.09a0.5,0.5,0,0,0,.25.09v0h0.1c0.12,0,.49,0,0.49-0.14l0,0,0.06,0.14,0.13,0,0-.1h0v0a0.86,0.86,0,0,0,.59-0.2c0.06,0,.3.1,0.3,0h0l0.2-.1v0a3.21,3.21,0,0,0,.4.13l0.14-.15v0a0.89,0.89,0,0,0,.35.13l0.09-.14h0.4a0.44,0.44,0,0,1,.49-0.2,2.69,2.69,0,0,0,.63-0.49h0a1.06,1.06,0,0,0,.55.08v0l0-.19,0,0h0l0.15,0.09,0.09-.29,0.2,0.09V40.72c0.26-.09.56,0,0.79-0.15l0.85-.58,0.28-.24a1.55,1.55,0,0,1,.63-0.09l0-.09,0.15,0,0.33-.4a2.92,2.92,0,0,0,.74-0.57h0.05v0h0.2v0l0,0-0.05-.14a0.49,0.49,0,0,0,.34-0.2V38.14l0,0s0.19-.1.2,0h0.05c0.07-.17.93-0.82,0.67-1.08l0.45-.47c0.65,0.1,1.16-1,1.17-.68h0.15l0,0.26" transform="translate(-70.12 -22.46)"/><path class="cls-1" d="M130.66,29.53c0.24,0.1.21,0.24,0.21,0.47a1.16,1.16,0,0,0-.44.84,1.69,1.69,0,0,1-.63.68,0.86,0.86,0,0,1-.33,0v0l0.1,0c0-.41.52-0.92,0.52-1.2l0.29-.06a0.75,0.75,0,0,0,.14-0.53l0.14-.1" transform="translate(-70.12 -22.46)"/><path class="cls-1" d="M129.13,31.79l0.08,0,0.27,0.06-0.17.3a0.4,0.4,0,0,1-.3.22l-0.16-.06,0-.11a0.77,0.77,0,0,0,.27-0.37" transform="translate(-70.12 -22.46)"/><path class="cls-1" d="M106.15,32.74a0.36,0.36,0,0,1,.2.28h-0.1a1.47,1.47,0,0,1-.49.25v0l-0.05-.09h0.2l-0.1-.18a0.73,0.73,0,0,0,.34-0.2" transform="translate(-70.12 -22.46)"/><path class="cls-1" d="M105.37,33.43h0s0.15,0.14.05,0.14a0.37,0.37,0,0,1-.29.2c0,0.11,0,.22,0,0.33l-0.25,0v0H105l0,0a2.75,2.75,0,0,1-.06-0.38l0.34-.15" transform="translate(-70.12 -22.46)"/><path class="cls-1" d="M128,33.27c0.12,0.07.1,0.1,0.08,0.25a0.94,0.94,0,0,1-.28.34,4.53,4.53,0,0,0-.31.57,3.93,3.93,0,0,1-.65.59c-0.27.12,0.12,0,0,.16a3.16,3.16,0,0,1-.71.56l0.06-.2a3.58,3.58,0,0,1,.63-0.94l0.3-.18a0.28,0.28,0,0,1,.19-0.27v-0.1l0-.11v0l0.24-.15-0.05-.14,0.07-.09,0.07,0h0.2l0.06,0c-0.17-.21.14-0.22,0.14-0.23" transform="translate(-70.12 -22.46)"/><path class="cls-1" d="M105,34.39h0.1a0.85,0.85,0,0,0,0,.57v0.1a0.44,0.44,0,0,1-.35-0.28l-0.15-.24h0.2c0-.06-0.1-0.23,0-0.24s0.25,0,.25.09" transform="translate(-70.12 -22.46)"/><path class="cls-1" d="M106.8,37.71c-0.07-.28-0.35-0.16-0.39-0.19l0-.09,0,0-0.33-.21a1,1,0,0,1-.54-0.86h0.1a2.11,2.11,0,0,0,1.06.69v0c0.1-.1.49,0.16,0.54,0l0.46,0.36a2.23,2.23,0,0,0,.6.13v0.14a4.58,4.58,0,0,1,.94.07l0-.15h0a0.45,0.45,0,0,0,.25.18v0l0.24-.15h0l0.5,0,1.36-.65a0.3,0.3,0,0,0,.26.19,2.74,2.74,0,0,1,.53-0.31,1.27,1.27,0,0,1,.34-0.28c0-.08-0.07-0.28,0-0.29l0.1,0h0l0.15-.15h0l-0.1-.19a1.4,1.4,0,0,1,.34-0.15l0.1,0,0,0c0-.1,0-0.19,0-0.29l0.14-.19,0.19-.1v0h0l-0.2-.09v0a0.77,0.77,0,0,0,.34-0.2c0-.16,0-0.31,0-0.47L114,34.22h0v0a1.14,1.14,0,0,0,.23-0.67l0-.1-0.15-.09a2,2,0,0,1-.06-0.33l-0.05,0,0.15-.1V32.74a2.17,2.17,0,0,1-.31-0.51c0-.14,0-0.11-0.06-0.24l-0.18-.25a1.4,1.4,0,0,0-.17-0.38l-0.24-.12a2.45,2.45,0,0,1-.59-0.59s-0.1-.11,0-0.11a0.72,0.72,0,0,1,.29-0.2,1.86,1.86,0,0,0,.73.49v0c-0.05.22,0.12,0.28,0.3,0.28H114a0.58,0.58,0,0,1,.2.47l0.13-.08,0.22,0.52A1.52,1.52,0,0,0,115,33v0h0a0.59,0.59,0,0,0-.45.35l0,0.05h0a1.22,1.22,0,0,1,.19.29,0.88,0.88,0,0,1,0,.42h-0.3a2.14,2.14,0,0,0,.25.48l0.08,0.46v0.15l-0.19.13a5.78,5.78,0,0,1-.5.86l-0.49.56V37l-0.48.25a0.87,0.87,0,0,1,0,.28v0.1H113a0.76,0.76,0,0,0-.35-0.13,0.44,0.44,0,0,0-.34.2c-0.08.13-.12-0.15-0.23,0a2.38,2.38,0,0,1-.41.08,2.55,2.55,0,0,1-.5.15,2.43,2.43,0,0,0-.44.18c-0.11-.3-0.11.24-0.4,0.06l-0.19-.1-0.14.2-0.31-.15a1,1,0,0,0-.68.12l0,0a1,1,0,0,0-.5-0.18l0,0.19-0.15-.09-0.05,0-0.19.1V38.07a4.43,4.43,0,0,0-.45-0.18c-0.15.26-.5-0.49-0.43-0.13Z" transform="translate(-70.12 -22.46)"/><path class="cls-1" d="M105,35.15a0.69,0.69,0,0,0,.35.23v0c-0.07.1,0,.43,0.11,0.42l-0.09.34h-0.11v0h0c0-.1-0.41-0.54-0.41-0.56a0.65,0.65,0,0,0,.14-0.43" transform="translate(-70.12 -22.46)"/><path class="cls-2" d="M96.33,40.79a4.47,4.47,0,0,1-1.41-.38,8.52,8.52,0,0,1-1.86-1.82c-0.31-.35-1.92-2.43-2.29-2.87,0.14-.14,1.63-1.91,1.78-2.05a2.48,2.48,0,0,1,1-.53A1.71,1.71,0,0,1,94,33s0.17,0,.17-0.11S94,32.83,94,32.83H91.91a0.14,0.14,0,0,0-.17.11l0.14,0.11L92,33.19a17.88,17.88,0,0,1-2,2.44c0-.06,0-1.84,0-2.11s0.09-.41.3-0.45l0.24,0c0.13,0,.16-0.06.16-0.11s-0.14-.11-0.22-0.11h-1.6l-0.85,0c-0.08,0-.23,0-0.23.11S87.88,33,87.93,33a1.26,1.26,0,0,1,.28,0,0.39,0.39,0,0,1,.35.45c0,0.27,0,.5,0,1.79V36.8c0,0.77,0,1.44,0,1.79s-0.09.37-.23,0.4a4.13,4.13,0,0,1-.48,0,4,4,0,0,1-.47,0,1.16,1.16,0,0,1-.76-0.86c-0.32-.72-0.88-2.15-1.37-3.31-0.38-.91-0.65-1.67-0.74-1.88a0.44,0.44,0,0,0-.3-0.31h0a0.35,0.35,0,0,0-.38.23l-2.29,5.45-0.08.21a0.62,0.62,0,0,1-.6.51A0.83,0.83,0,0,1,80.41,39c-0.22-.08-0.39-0.24-0.49-1l-1-6.28a0.35,0.35,0,0,0-.24-0.37,0.33,0.33,0,0,0-.29.24L75.6,36.94l-2.79-5.51a0.35,0.35,0,0,0-.3-0.24,0.32,0.32,0,0,0-.27.31L71,38.23a0.82,0.82,0,0,1-.41.78,1.48,1.48,0,0,1-.31,0c-0.05,0-.2,0-0.2.1s0.17,0.14.22,0.14l0.66,0h0.79l0.86,0c0.1,0,.29,0,0.29-0.14S72.87,39,72.74,39a2.16,2.16,0,0,1-.44,0,0.25,0.25,0,0,1-.23-0.29,3.85,3.85,0,0,1,0-.47s0.55-3.23.61-3.6c0.32,0.65,1.83,3.7,2.07,4.13l0,0.06a0.8,0.8,0,0,0,.37.46c0.19,0,.25-0.12.5-0.61l2.12-4.15,0.67,4a1.25,1.25,0,0,1,0,.22c0,0.27-.07.25-0.34,0.28a0.13,0.13,0,0,0-.15.12c0,0.11,0,.16.51,0.14s1.84,0,2.2,0h0.09l0.55,0H81.6l1.08,0a0.15,0.15,0,0,0,.18-0.12l-0.12-.1H82.51c-0.24,0-.27-0.13-0.27-0.23a1.5,1.5,0,0,1,.13-0.5l0.07-.18,0.4-1,0.05,0h1.78l0.06,0,0.71,1.79V39l-0.13.06H85.19a0.13,0.13,0,0,0-.15.11c0,0.14.23,0.09,0.49,0.09h4.13l1,0c0.18,0,.2-0.08.2-0.12s0-.1-0.15-0.1l-0.43,0A0.38,0.38,0,0,1,90,38.6c0-.36,0-1,0-1.8V36.57L90,36.67c0.19,0.25,2.64,3.39,3.05,3.7a2.87,2.87,0,0,0,1.44.59,3.59,3.59,0,0,0,.82,0h0.91c0.13,0,.25,0,0.25-0.12s0-.1-0.15-0.1M84.5,36.46H83.1l0.74-1.9,0.68,1.9h0" transform="translate(-70.12 -22.46)"/><path class="cls-2" d="M145.06,38.53a0.68,0.68,0,1,1,.68.7,0.68,0.68,0,0,1-.68-0.7m0.68,0.84a0.84,0.84,0,1,0-.85-0.84,0.84,0.84,0,0,0,.85.84m-0.18-.77h0.17L146,39h0.16l-0.27-.42a0.25,0.25,0,0,0,.25-0.26,0.27,0.27,0,0,0-.34-0.28h-0.37v1h0.15V38.6Zm0-.12v-0.3h0.2a0.17,0.17,0,0,1,.21.14c0,0.15-.11.16-0.23,0.16h-0.17Z" transform="translate(-70.12 -22.46)"/></svg>