<svg id="Layer_1" data-name="Layer 1" xmlns="http://www.w3.org/2000/svg" viewBox="0 0 82.72 41.05"><defs><style>.cls-1{fill:#231f20;}</style></defs><title>mtv</title><path class="cls-1" d="M29.52,41h3.66V35.52l-3.66-2.6V41h0Zm9.39-5.34H42l0.83-.59V32.93Zm-0.3-32L36.16,5.91,29.53,0,38,3.13ZM74.35,15.22V0L78.8,2.25v8.34A50,50,0,0,0,74.35,15.22Zm4.45,3V41H74.35V24.34a43.59,43.59,0,0,1,4.45-6.08h0ZM55.6,41a29.16,29.16,0,0,1-.32-3.8c0-.84.13-4.05,0.13-6.67,0-2.21-.57-6.13-0.57-8.25a24.5,24.5,0,0,0-.06-3.63C56,18,57,17.57,60.39,15.87c1.08-.55,3.15-1.48,3.15-2.61a1.62,1.62,0,0,0-1-1.41,3.28,3.28,0,0,0-1.93-.51c-1.7,0-2.47,1.44-3.9,2.17-2.18,1.12-3.33,1.69-3.78,1.89A5.1,5.1,0,0,0,50.82,15c-1.24,0-2.69.47-2.69,1.84,0,0.62.24,1.3-.76,1.74-0.55.3-3.26,1.6-6.15,3.07-2.43,1.24-3.56,1.14-4.59,1.69a1.81,1.81,0,0,0-1.19,1.6A2.24,2.24,0,0,0,35.91,26a2.79,2.79,0,0,0,2.27,1.09c1.74,0,3.19-1.28,5.88-2.9,1.68-1,3.22-2,4.12-2s1.36,0.51,1.36,2.61c0,7-.51,8.16-0.51,13,0,0.84,0,2.53.08,3.18H44.68V29.51l-8.53,6.05-8.53-6.05V41H0V0H26.91l9.26,8.22L45.43,0h27V17.54a52.47,52.47,0,0,0-5.23,8.74c-0.58,1.26-.84,2.17-1.6,2.17s-0.9-.69-1-1.31c-0.17-1.35-.53-3.87-0.7-4.8-0.32-1.8-.74-3.69-3.12-3.69a3.23,3.23,0,0,0-3.61,2.59,2.38,2.38,0,0,0,0,.45c0,1.26.75,3.45,2,6.32l3.61,8A3.07,3.07,0,0,0,66,38c2,0,2.66-.62,3.48-3,0.69-2,1.87-5.25,2.84-7.28h0V41H55.6v0Z" transform="translate(0 0.01)"/><path class="cls-1" d="M79.32,39h1.41v0.26H80.17v1.48H79.91V39.21H79.36V39h0Z" transform="translate(0 0.01)"/><path class="cls-1" d="M80.91,39h0.43l0.48,1.37h0L82.29,39h0.43V40.7H82.43V39.35h0L81.95,40.7H81.7l-0.48-1.35h0V40.7H80.91V39Z" transform="translate(0 0.01)"/></svg>