<svg id="Layer_1" data-name="Layer 1" xmlns="http://www.w3.org/2000/svg" viewBox="0 0 106.5 62.98"><defs><style>.cls-1{fill:#f39d2e;}.cls-1,.cls-2,.cls-3,.cls-4,.cls-5{fill-rule:evenodd;}.cls-2{fill:#e82d71;}.cls-3{fill:#fae227;}.cls-4{fill:#c6d736;}.cls-5{fill:#71c8d9;}</style></defs><title>VH1</title><polygon class="cls-1" points="58.66 0 106.5 4.54 106.5 58.45 58.66 62.98 58.66 0 58.66 0"/><polygon class="cls-2" points="9.07 4.54 56.85 0 56.85 62.98 9.07 58.45 9.07 4.54 9.07 4.54"/><path class="cls-3" d="M241.84,387.36a10.06,10.06,0,0,1,5.61,2.24,9.17,9.17,0,0,1,3.74,5.63c0.51,2.41.85,4.88,1.3,7.35l5.1-23.94,2.44-.11v20.1L256,416.18l-7.94-.46-6.18-28.36h0Z" transform="translate(-231.64 -364.51)"/><path class="cls-1" d="M232.09,370.08a8.91,8.91,0,0,0,2.55,2.7,14.27,14.27,0,0,0,3,1.38c0.68,0.23,1.3.46,1.93,0.63,3.8,1.21,6.86,2.18,8.73,6.78a31.65,31.65,0,0,1,1.64,6.83c0.11,0.57.23,1.15,0.34,1.61a0.22,0.22,0,0,1-.4.17,7.45,7.45,0,0,0-3.51-2.76,24.23,24.23,0,0,0-4.31-1.32c-2.66-.57-4.59-1.21-6-2.35s-2.27-3-3.06-5.91h0c-0.4-1.67-.68-3.5-1-5.28-0.11-.8-0.23-1.61-0.4-2.35,0-.17.34-0.34,0.45-0.11h0Z" transform="translate(-231.64 -364.51)"/><path class="cls-4" d="M261.17,378.46l6.52-.34v14.24a9.74,9.74,0,0,1,4.08-3.5,14.11,14.11,0,0,1,6-.92v29.51l-2.32-.11V399.07c0-3.22-1.87-4-3.8-3.9-2.15.11-4,2.3-4,5.74v16l-6.52-.4v-38h0Z" transform="translate(-231.64 -364.51)"/><path class="cls-5" d="M278.8,387.93l3.4,0.11a5.12,5.12,0,0,0,2.15,3.85,6.81,6.81,0,0,0,4.14,1.26v4.54h-5.1v20.1l-4.59-.29V387.93h0Z" transform="translate(-231.64 -364.51)"/></svg>