<svg id="svg3743" xmlns="http://www.w3.org/2000/svg" xmlns:xlink="http://www.w3.org/1999/xlink" viewBox="0 0 270.66 62.82"><defs><style>.cls-1{fill:url(#linear-gradient);}.cls-2{fill:#6700e8;}.cls-3{fill:url(#linear-gradient-2);}.cls-4{fill:url(#linear-gradient-3);}.cls-5{fill:url(#linear-gradient-4);}.cls-6{fill:url(#linear-gradient-5);}.cls-7{fill:url(#linear-gradient-6);}.cls-8{fill:url(#linear-gradient-7);}.cls-9{fill:url(#linear-gradient-8);}.cls-10{fill:url(#linear-gradient-9);}.cls-11{fill:url(#linear-gradient-10);}.cls-12{fill:url(#linear-gradient-11);}.cls-13{fill:#200045;}.cls-14{fill:url(#linear-gradient-12);}.cls-15{fill:url(#linear-gradient-13);}.cls-16{fill:url(#linear-gradient-14);}.cls-17{fill:url(#linear-gradient-15);}.cls-18{fill:url(#linear-gradient-16);}.cls-19{fill:url(#linear-gradient-17);}.cls-20{fill:url(#linear-gradient-18);}.cls-21{fill:url(#linear-gradient-19);}.cls-22{fill:url(#linear-gradient-20);}.cls-23{fill:url(#radial-gradient);}.cls-24{fill:url(#linear-gradient-21);}.cls-25{fill:url(#linear-gradient-22);}.cls-26{fill:url(#radial-gradient-2);}</style><linearGradient id="linear-gradient" x1="304.62" y1="-1727.18" x2="317.4" y2="-1656.65" gradientTransform="matrix(0.61, 0, 0, -0.61, 438.95, -919.89)" gradientUnits="userSpaceOnUse"><stop offset="0" stop-color="#210045"/><stop offset="0.59" stop-color="#430085"/><stop offset="1" stop-color="#5000b2"/></linearGradient><linearGradient id="linear-gradient-2" x1="-21.66" y1="-1662" x2="16.21" y2="-1739.27" gradientTransform="matrix(0.61, 0, 0, -0.61, 438.95, -919.89)" gradientUnits="userSpaceOnUse"><stop offset="0" stop-color="#5500bd"/><stop offset="1" stop-color="#5000ac"/></linearGradient><linearGradient id="linear-gradient-3" x1="-9.46" y1="-1701.32" x2="-4.52" y2="-1699.43" gradientTransform="matrix(0.61, 0, 0, -0.61, 438.95, -919.89)" gradientUnits="userSpaceOnUse"><stop offset="0" stop-color="#2a005a"/><stop offset="1" stop-color="#210046"/></linearGradient><linearGradient id="linear-gradient-4" x1="-50.9" y1="-1738.07" x2="-24.84" y2="-1670.71" gradientTransform="matrix(0.61, 0, 0, -0.61, 438.95, -919.89)" gradientUnits="userSpaceOnUse"><stop offset="0" stop-color="#21004e"/><stop offset="1" stop-color="#39007f"/></linearGradient><linearGradient id="linear-gradient-5" x1="-64.27" y1="-1675.89" x2="-59.19" y2="-1678.91" gradientTransform="matrix(0.61, 0, 0, -0.61, 438.95, -919.89)" gradientUnits="userSpaceOnUse"><stop offset="0" stop-color="#1b0041"/><stop offset="1" stop-color="#21004f"/></linearGradient><linearGradient id="linear-gradient-6" x1="-53.89" y1="-1647.64" x2="-81.02" y2="-1704.37" gradientTransform="matrix(0.61, 0, 0, -0.61, 438.95, -919.89)" gradientUnits="userSpaceOnUse"><stop offset="0" stop-color="#5500bd"/><stop offset="1" stop-color="#47008d"/></linearGradient><linearGradient id="linear-gradient-7" x1="-109.14" y1="-1648.55" x2="-82.15" y2="-1704.88" gradientTransform="matrix(0.61, 0, 0, -0.61, 438.95, -919.89)" gradientUnits="userSpaceOnUse"><stop offset="0" stop-color="#5100b2"/><stop offset="1" stop-color="#5500bd"/></linearGradient><linearGradient id="linear-gradient-8" x1="-104.37" y1="-1678.98" x2="-99.49" y2="-1675.73" gradientTransform="matrix(0.61, 0, 0, -0.61, 438.95, -919.89)" gradientUnits="userSpaceOnUse"><stop offset="0" stop-color="#27005d" stop-opacity="0.98"/><stop offset="0.32" stop-color="#2b005d"/><stop offset="0.6" stop-color="#280055"/><stop offset="0.81" stop-color="#24004d"/><stop offset="1" stop-color="#230049"/></linearGradient><linearGradient id="linear-gradient-9" x1="-82.43" y1="-1704.54" x2="-76.58" y2="-1750.61" gradientTransform="matrix(0.61, 0, 0, -0.61, 438.95, -919.89)" gradientUnits="userSpaceOnUse"><stop offset="0" stop-color="#5500bd"/><stop offset="1" stop-color="#5300b5"/></linearGradient><linearGradient id="linear-gradient-10" x1="-84.4" y1="-1704.76" x2="-84.4" y2="-1750.35" gradientTransform="matrix(0.61, 0, 0, -0.61, 438.95, -919.89)" gradientUnits="userSpaceOnUse"><stop offset="0" stop-color="#210045"/><stop offset="0.25" stop-color="#25004d"/><stop offset="0.5" stop-color="#2b005c"/><stop offset="0.75" stop-color="#340071"/><stop offset="1" stop-color="#3e0088"/></linearGradient><linearGradient id="linear-gradient-11" x1="-59.01" y1="-1739.13" x2="-20.22" y2="-1661.49" gradientTransform="matrix(0.61, 0, 0, -0.61, 438.95, -919.89)" gradientUnits="userSpaceOnUse"><stop offset="0" stop-color="#4d00a1"/><stop offset="1" stop-color="#5200b4"/></linearGradient><linearGradient id="linear-gradient-12" x1="-41.5" y1="-1712.41" x2="0.51" y2="-1712.41" gradientTransform="matrix(0.61, 0, 0, -0.61, 438.95, -919.89)" gradientUnits="userSpaceOnUse"><stop offset="0" stop-color="#6700e8"/><stop offset="0.51" stop-color="#6700e8"/><stop offset="1" stop-color="#6700e8"/></linearGradient><linearGradient id="linear-gradient-13" x1="30.65" y1="-1699.13" x2="37.47" y2="-1699.13" gradientTransform="matrix(0.61, 0, 0, -0.61, 438.95, -919.89)" gradientUnits="userSpaceOnUse"><stop offset="0" stop-color="#5a00c9"/><stop offset="1" stop-color="#4f00a8"/></linearGradient><linearGradient id="linear-gradient-14" x1="24.03" y1="-1699.13" x2="30.8" y2="-1699.13" gradientTransform="matrix(0.61, 0, 0, -0.61, 438.95, -919.89)" gradientUnits="userSpaceOnUse"><stop offset="0" stop-color="#390080"/><stop offset="0.5" stop-color="#31006e"/><stop offset="1" stop-color="#250056"/></linearGradient><linearGradient id="linear-gradient-15" x1="80.71" y1="-1699.13" x2="87.73" y2="-1699.13" gradientTransform="matrix(0.61, 0, 0, -0.61, 438.95, -919.89)" gradientUnits="userSpaceOnUse"><stop offset="0" stop-color="#3f008b"/><stop offset="1" stop-color="#220050"/></linearGradient><linearGradient id="linear-gradient-16" x1="30.77" y1="-1698.53" x2="87.61" y2="-1698.53" gradientTransform="matrix(0.61, 0, 0, -0.61, 438.95, -919.89)" gradientUnits="userSpaceOnUse"><stop offset="0" stop-color="#6700e8"/><stop offset="0.5" stop-color="#6700e8"/><stop offset="1" stop-color="#6700e8"/></linearGradient><linearGradient id="linear-gradient-17" x1="163.74" y1="-1667.21" x2="120.15" y2="-1731.42" gradientTransform="matrix(0.61, 0, 0, -0.61, 438.95, -919.89)" gradientUnits="userSpaceOnUse"><stop offset="0" stop-color="#1c0044"/><stop offset="0.1" stop-color="#2f0065"/><stop offset="0.2" stop-color="#34006d"/><stop offset="0.3" stop-color="#3b007a"/><stop offset="0.4" stop-color="#3c007a"/><stop offset="0.5" stop-color="#490096"/><stop offset="0.6" stop-color="#5000ab"/><stop offset="0.7" stop-color="#5400ba"/><stop offset="0.8" stop-color="#5500bc"/><stop offset="0.9" stop-color="#5700c2"/><stop offset="1" stop-color="#5c00ce"/></linearGradient><linearGradient id="linear-gradient-18" x1="114.72" y1="-1733.72" x2="169.3" y2="-1665.39" gradientTransform="matrix(0.61, 0, 0, -0.61, 438.95, -919.89)" gradientUnits="userSpaceOnUse"><stop offset="0" stop-color="#1b0041"/><stop offset="0.1" stop-color="#1b0041"/><stop offset="0.2" stop-color="#1b0041"/><stop offset="0.3" stop-color="#240052"/><stop offset="0.4" stop-color="#32006a"/><stop offset="0.5" stop-color="#3d007d"/><stop offset="0.6" stop-color="#490098"/><stop offset="0.7" stop-color="#4f00a8"/><stop offset="0.8" stop-color="#5500bc"/><stop offset="0.9" stop-color="#5700c2"/><stop offset="1" stop-color="#6000da"/></linearGradient><linearGradient id="linear-gradient-19" x1="261.64" y1="-1661.21" x2="220.83" y2="-1738.3" gradientTransform="matrix(0.61, 0, 0, -0.61, 438.95, -919.89)" gradientUnits="userSpaceOnUse"><stop offset="0" stop-color="#1e0046"/><stop offset="0.1" stop-color="#2d0061"/><stop offset="0.2" stop-color="#33006b"/><stop offset="0.3" stop-color="#400082"/><stop offset="0.4" stop-color="#490096"/><stop offset="0.5" stop-color="#5000ac"/><stop offset="0.6" stop-color="#5500bd"/><stop offset="0.7" stop-color="#4f00a8"/><stop offset="0.8" stop-color="#5500bc"/><stop offset="0.9" stop-color="#5700c2"/><stop offset="1" stop-color="#6000da"/></linearGradient><linearGradient id="linear-gradient-20" x1="215.28" y1="-1741.09" x2="267.04" y2="-1658.68" xlink:href="#linear-gradient-18"/><radialGradient id="radial-gradient" cx="1612.48" cy="-1941.47" r="6.76" gradientTransform="matrix(-0.22, 0.74, 0.78, 0.23, 2495.26, -612.2)" gradientUnits="userSpaceOnUse"><stop offset="0" stop-color="#6000d8"/><stop offset="0.21" stop-color="#5c00cd"/><stop offset="0.37" stop-color="#5500be"/><stop offset="0.72" stop-color="#2d0062"/><stop offset="1" stop-color="#210045"/></radialGradient><linearGradient id="linear-gradient-21" x1="301.39" y1="-1727.58" x2="311.55" y2="-1657.49" gradientTransform="matrix(0.61, 0, 0, -0.61, 438.95, -919.89)" gradientUnits="userSpaceOnUse"><stop offset="0" stop-color="#47008d"/><stop offset="1" stop-color="#5100b3"/></linearGradient><linearGradient id="linear-gradient-22" x1="87.57" y1="-1699.13" x2="94.35" y2="-1699.13" gradientTransform="matrix(0.61, 0, 0, -0.61, 438.95, -919.89)" gradientUnits="userSpaceOnUse"><stop offset="0" stop-color="#5500bd"/><stop offset="1" stop-color="#5200b2"/></linearGradient><radialGradient id="radial-gradient-2" cx="1795.94" cy="-302.32" r="6.09" gradientTransform="matrix(-0.81, -0.14, -0.1, 0.58, 2051.33, 522.47)" gradientUnits="userSpaceOnUse"><stop offset="0" stop-color="#6700e8"/><stop offset="0.4" stop-color="#5c00ce"/><stop offset="0.7" stop-color="#5600bf" stop-opacity="0.05"/><stop offset="1" stop-color="#220047" stop-opacity="0"/></radialGradient></defs><title>yahoo</title><g id="layer1"><path id="path3223" class="cls-1" d="M631.87,85.74c2.08,0.35,3.46,1.62,3.46,3.81a13.78,13.78,0,0,1-.5,2.61c-1.39,6.13-6.82,27.79-9.11,42.25l-2.1-2.1,6.7-44.48Z" transform="translate(-364.67 -85.02)"/><path id="path3201" class="cls-2" d="M496.51,91.63a17.43,17.43,0,0,1-8.26,0l4.3,4.46Z" transform="translate(-364.67 -85.02)"/><path id="path3193" class="cls-2" d="M453.56,91.63a17.43,17.43,0,0,0,8.26,0l-4.3,4.46Z" transform="translate(-364.67 -85.02)"/><path id="path3181" class="cls-3" d="M429.31,91.61c6.34,16,16.31,40.3,21.27,49.58l-7.35-2.25L425,93.43Z" transform="translate(-364.67 -85.02)"/><path id="path3175" class="cls-2" d="M423.55,91.61a8.18,8.18,0,0,0,5.76,0l-4.09,2.52Z" transform="translate(-364.67 -85.02)"/><path id="path3177" class="cls-4" d="M426.46,93.36L445,138.83a9.34,9.34,0,0,1-2.65,2.37c-5.37-13.84-11.15-27.69-16-41.35l-2.41-4.09Z" transform="translate(-364.67 -85.02)"/><path id="path3173" class="cls-5" d="M410.52,141.18L405,139.25,424.32,94l2.15-.66v6.7c-3,8.65-10.6,27.62-15.95,41.13h0Z" transform="translate(-364.67 -85.02)"/><path id="path3167" class="cls-2" d="M406,85l1.82,4.13L412.42,87l1.88-2A17.08,17.08,0,0,1,406,85Z" transform="translate(-364.67 -85.02)"/><path id="path3165" class="cls-6" d="M392.92,121l-3.14,1.16-2-3.47,19.66-31.39,1.41-.48A17.25,17.25,0,0,0,414.3,85c-3.12,4.22-14.49,23.94-21.38,36h0Z" transform="translate(-364.67 -85.02)"/><path id="path3163" class="cls-7" d="M388.63,120.54l0.83-.83L408.9,86.84,406,85c-2.35,4.37-11,18.53-16.52,27.59l-2.64,5Z" transform="translate(-364.67 -85.02)"/><path id="path3161" class="cls-8" d="M372.93,85c4.31,7.64,10.93,18.33,16.52,27.59v7.1L388.13,121,368.8,86.67Z" transform="translate(-364.67 -85.02)"/><path id="path3159" class="cls-2" d="M369.74,87.1L372.93,85a15.4,15.4,0,0,1-8.26,0L366,86.5Z" transform="translate(-364.67 -85.02)"/><path id="path3157" class="cls-9" d="M389.45,119.72L388,121.86l-2-.83c-3.69-6.38-14.54-25.82-21.31-36A12.58,12.58,0,0,0,370,86.91Z" transform="translate(-364.67 -85.02)"/><path id="path3155" class="cls-10" d="M393.42,147.64L387.8,145l0.5-23.46,1.16-1.82,3.47,1.32Z" transform="translate(-364.67 -85.02)"/><path id="path3153" class="cls-11" d="M389.45,145.82l-4,1.82L386,121l3.47-1.32v26.11Z" transform="translate(-364.67 -85.02)"/><path id="path3171" class="cls-12" d="M402.34,141.2c6.89-14.05,14.56-32.9,21.21-49.59l2.91,1.75-18.82,46-3.82,1.3Z" transform="translate(-364.67 -85.02)"/><path id="path3179" class="cls-13" d="M444.81,138.75l5.79,2.44a17,17,0,0,0-8.24,0l1.13-2.78Z" transform="translate(-364.67 -85.02)"/><path id="path3185" class="cls-14" d="M413.58,124.94l4.07-1.75q8.79,0.31,17.58,0l4.13,1.8-3.84.84h-19Z" transform="translate(-364.67 -85.02)"/><path id="path3183" class="cls-13" d="M416.29,126.66l-2.73-1.72q12.87-.2,25.78.05l-2.73,1.67C429.84,126.44,423.06,126.46,416.29,126.66Z" transform="translate(-364.67 -85.02)"/><path id="path3191" class="cls-15" d="M461.82,141.2l-5.78-2V94.77l1.65-.83,4.13-2.31A472.93,472.93,0,0,0,461.82,141.2Z" transform="translate(-364.67 -85.02)"/><path id="path3189" class="cls-16" d="M457.69,138.88V140l-4.13,1.16c0.66-16.5.72-33,0-49.57l4.13,2.31v44.94Z" transform="translate(-364.67 -85.02)"/><path id="path3199" class="cls-17" d="M488.25,141.2l5.78-2V94.77l-1.65-.83-4.13-2.31A472.87,472.87,0,0,1,488.25,141.2Z" transform="translate(-364.67 -85.02)"/><path id="path3205" class="cls-18" d="M457.71,116.31l3.47-1.55c9.23,0.23,18.47.22,27.71,0l3.48,1.55-4.31,1H461.15Z" transform="translate(-364.67 -85.02)"/><path id="path3207" class="cls-19" d="M525.67,91.61c-16.23,0-24.33,10.15-24.33,24.9,0,18.48,12.26,24.88,24.11,24.88,14.08,0,24.18-7.92,24.18-24.83,0-16.27-9.56-24.94-24-24.94h0ZM525.19,94h0.46c10.72,0,18.59,7.3,18.59,22.55s-7.86,22.53-18.57,22.53c-11.68,0-18.55-8.37-18.55-22.49C507.12,100.59,515.58,94.16,525.19,94Z" transform="translate(-364.67 -85.02)"/><path id="path3209" class="cls-20" d="M525.61,91c-17.53,0-26.72,11.11-26.72,25.52,0,15.77,10,25.38,26.7,25.38,18,0,26.8-10.84,26.8-25.22C552.39,100.61,541.89,91,525.61,91Zm0.05,1.64c13.84,0,23,8.32,23,23.95,0,16.23-9.7,23.85-23.22,23.85-11.39,0-23.15-6.14-23.15-23.89,0-14.17,7.78-23.91,23.36-23.91h0Z" transform="translate(-364.67 -85.02)"/><path id="path3213" class="cls-21" d="M586.23,89.07c-16.47,0-27.75,9.31-27.75,27.46,0,17.8,10.5,27.75,27.82,27.75,13.12,0,27.5-6.74,27.5-27.5C613.79,94.38,598.09,89.07,586.23,89.07Zm-0.09,2c13.11,0,22.76,8,22.76,25.52,0,19.09-11.68,25.28-22.74,25.28-11.82,0-22.59-6.94-22.59-25.66C563.58,96.8,575.51,91.06,586.14,91.06Z" transform="translate(-364.67 -85.02)"/><path id="path3215" class="cls-22" d="M586.12,88c-17.45,0-30.8,9.91-30.8,28.34,0,15.18,8.87,28.54,30.94,28.54,18.68,0,30.88-10.27,30.88-28.28,0-17-11.38-28.61-31-28.61h0Zm0.11,1.85c11.54,0,26.81,5.17,26.81,27,0,20.19-14,26.75-26.75,26.75-16.85,0-27.06-9.68-27.06-27C559.23,98.88,570.21,89.82,586.23,89.82Z" transform="translate(-364.67 -85.02)"/><path id="path3217" class="cls-23" d="M618.49,144a3.82,3.82,0,0,1,3.9-4.11c2.49,0,4.35,1.49,4.35,3.86,0,3-2,4.05-3.75,4.05-2.48,0-4.49-1.29-4.49-3.8h0Z" transform="translate(-364.67 -85.02)"/><path id="path3221" class="cls-24" d="M622.64,133.93c2-14.24,3.24-29.2,4.42-44.13A3.76,3.76,0,0,1,631,85.67a7.75,7.75,0,0,1,.86.07l-0.54,3.57-7.07,44.23Z" transform="translate(-364.67 -85.02)"/><path id="path3151" class="cls-13" d="M385.49,147.64l4-2.91,4,2.91a26.6,26.6,0,0,0-4-.4A30.49,30.49,0,0,0,385.49,147.64Z" transform="translate(-364.67 -85.02)"/><path id="path3169" class="cls-13" d="M402.34,141.2l5.54-2.4a8.42,8.42,0,0,0,2.64,2.38,16.83,16.83,0,0,0-8.18,0h0Z" transform="translate(-364.67 -85.02)"/><path id="path3187" class="cls-13" d="M453.56,141.2a17.41,17.41,0,0,1,8.25,0l-4.12-2.31Z" transform="translate(-364.67 -85.02)"/><path id="path3203" class="cls-13" d="M461.18,118.14l-3.48-1.83c11.56,0.12,23.12.14,34.67,0l-3.47,1.82q-13.86-.19-27.72,0h0Z" transform="translate(-364.67 -85.02)"/><path id="path3197" class="cls-25" d="M492.38,138.88V140l4.13,1.16c-0.66-16.5-.72-33,0-49.57l-4.13,2.31v44.94Z" transform="translate(-364.67 -85.02)"/><path id="path3195" class="cls-13" d="M496.51,141.2a17.41,17.41,0,0,0-8.25,0l4.12-2.31Z" transform="translate(-364.67 -85.02)"/><path id="path3219" class="cls-13" d="M624.46,132.26l-1.83,1.67a5.33,5.33,0,0,1,3.1.48Z" transform="translate(-364.67 -85.02)"/><path id="path3507" class="cls-26" d="M635.23,89.27a4.06,4.06,0,1,1-4-3.52A3.8,3.8,0,0,1,635.23,89.27Z" transform="translate(-364.67 -85.02)"/></g></svg>